  0
SECTION
  2
HEADER
  9
$ACADVER
  1
AC1027
  9
$ACADMAINTVER
 70
105
  9
$DWGCODEPAGE
  3
ANSI_1252
  9
$LASTSAVEDBY
  1
ezdxf
  9
$REQUIREDVERSIONS
160
0
  9
$INSBASE
 10
0.0
 20
0.0
 30
0.0
  9
$EXTMIN
 10
1e+20
 20
1e+20
 30
1e+20
  9
$EXTMAX
 10
-1e+20
 20
-1e+20
 30
-1e+20
  9
$LIMMIN
 10
0.0
 20
0.0
  9
$LIMMAX
 10
420.0
 20
297.0
  9
$ORTHOMODE
 70
0
  9
$REGENMODE
 70
1
  9
$FILLMODE
 70
1
  9
$QTEXTMODE
 70
0
  9
$MIRRTEXT
 70
1
  9
$LTSCALE
 40
1.0
  9
$ATTMODE
 70
1
  9
$TEXTSIZE
 40
2.5
  9
$TRACEWID
 40
1.0
  9
$TEXTSTYLE
  7
Standard
  9
$CLAYER
  8
0
  9
$CELTYPE
  6
ByLayer
  9
$CECOLOR
 62
256
  9
$CELTSCALE
 40
1.0
  9
$DISPSILH
 70
0
  9
$DIMSCALE
 40
1.0
  9
$DIMASZ
 40
2.5
  9
$DIMEXO
 40
0.625
  9
$DIMDLI
 40
3.75
  9
$DIMRND
 40
0.0
  9
$DIMDLE
 40
0.0
  9
$DIMEXE
 40
1.25
  9
$DIMTP
 40
0.0
  9
$DIMTM
 40
0.0
  9
$DIMTXT
 40
2.5
  9
$DIMCEN
 40
2.5
  9
$DIMTSZ
 40
0.0
  9
$DIMTOL
 70
0
  9
$DIMLIM
 70
0
  9
$DIMTIH
 70
0
  9
$DIMTOH
 70
0
  9
$DIMSE1
 70
0
  9
$DIMSE2
 70
0
  9
$DIMTAD
 70
1
  9
$DIMZIN
 70
8
  9
$DIMBLK
  1

  9
$DIMASO
 70
1
  9
$DIMSHO
 70
1
  9
$DIMPOST
  1

  9
$DIMAPOST
  1

  9
$DIMALT
 70
0
  9
$DIMALTD
 70
3
  9
$DIMALTF
 40
0.03937007874
  9
$DIMLFAC
 40
1.0
  9
$DIMTOFL
 70
1
  9
$DIMTVP
 40
0.0
  9
$DIMTIX
 70
0
  9
$DIMSOXD
 70
0
  9
$DIMSAH
 70
0
  9
$DIMBLK1
  1

  9
$DIMBLK2
  1

  9
$DIMSTYLE
  2
ISO-25
  9
$DIMCLRD
 70
0
  9
$DIMCLRE
 70
0
  9
$DIMCLRT
 70
0
  9
$DIMTFAC
 40
1.0
  9
$DIMGAP
 40
0.625
  9
$DIMJUST
 70
0
  9
$DIMSD1
 70
0
  9
$DIMSD2
 70
0
  9
$DIMTOLJ
 70
0
  9
$DIMTZIN
 70
8
  9
$DIMALTZ
 70
0
  9
$DIMALTTZ
 70
0
  9
$DIMUPT
 70
0
  9
$DIMDEC
 70
2
  9
$DIMTDEC
 70
2
  9
$DIMALTU
 70
2
  9
$DIMALTTD
 70
3
  9
$DIMTXSTY
  7
Standard
  9
$DIMAUNIT
 70
0
  9
$DIMADEC
 70
0
  9
$DIMALTRND
 40
0.0
  9
$DIMAZIN
 70
0
  9
$DIMDSEP
 70
44
  9
$DIMATFIT
 70
3
  9
$DIMFRAC
 70
0
  9
$DIMLDRBLK
  1

  9
$DIMLUNIT
 70
2
  9
$DIMLWD
 70
-2
  9
$DIMLWE
 70
-2
  9
$DIMTMOVE
 70
0
  9
$DIMFXL
 40
1.0
  9
$DIMFXLON
 70
0
  9
$DIMJOGANG
 40
0.785398163397
  9
$DIMTFILL
 70
0
  9
$DIMTFILLCLR
 70
0
  9
$DIMARCSYM
 70
0
  9
$DIMLTYPE
  6

  9
$DIMLTEX1
  6

  9
$DIMLTEX2
  6

  9
$DIMTXTDIRECTION
 70
0
  9
$LUNITS
 70
2
  9
$LUPREC
 70
4
  9
$SKETCHINC
 40
1.0
  9
$FILLETRAD
 40
10.0
  9
$AUNITS
 70
0
  9
$AUPREC
 70
2
  9
$MENU
  1
.
  9
$ELEVATION
 40
0.0
  9
$PELEVATION
 40
0.0
  9
$THICKNESS
 40
0.0
  9
$LIMCHECK
 70
0
  9
$CHAMFERA
 40
0.0
  9
$CHAMFERB
 40
0.0
  9
$CHAMFERC
 40
0.0
  9
$CHAMFERD
 40
0.0
  9
$SKPOLY
 70
0
  9
$TDCREATE
 40
2460754.9084490743
  9
$TDUCREATE
 40
2458532.153996898
  9
$TDUPDATE
 40
2460754.9084490743
  9
$TDUUPDATE
 40
2458532.1544311
  9
$TDINDWG
 40
0.0
  9
$TDUSRTIMER
 40
0.0
  9
$USRTIMER
 70
1
  9
$ANGBASE
 50
0.0
  9
$ANGDIR
 70
0
  9
$PDMODE
 70
0
  9
$PDSIZE
 40
0.0
  9
$PLINEWID
 40
0.0
  9
$SPLFRAME
 70
0
  9
$SPLINETYPE
 70
6
  9
$SPLINESEGS
 70
8
  9
$HANDSEED
  5
41
  9
$SURFTAB1
 70
6
  9
$SURFTAB2
 70
6
  9
$SURFTYPE
 70
6
  9
$SURFU
 70
6
  9
$SURFV
 70
6
  9
$UCSBASE
  2

  9
$UCSNAME
  2

  9
$UCSORG
 10
0.0
 20
0.0
 30
0.0
  9
$UCSXDIR
 10
1.0
 20
0.0
 30
0.0
  9
$UCSYDIR
 10
0.0
 20
1.0
 30
0.0
  9
$UCSORTHOREF
  2

  9
$UCSORTHOVIEW
 70
0
  9
$UCSORGTOP
 10
0.0
 20
0.0
 30
0.0
  9
$UCSORGBOTTOM
 10
0.0
 20
0.0
 30
0.0
  9
$UCSORGLEFT
 10
0.0
 20
0.0
 30
0.0
  9
$UCSORGRIGHT
 10
0.0
 20
0.0
 30
0.0
  9
$UCSORGFRONT
 10
0.0
 20
0.0
 30
0.0
  9
$UCSORGBACK
 10
0.0
 20
0.0
 30
0.0
  9
$PUCSBASE
  2

  9
$PUCSNAME
  2

  9
$PUCSORG
 10
0.0
 20
0.0
 30
0.0
  9
$PUCSXDIR
 10
1.0
 20
0.0
 30
0.0
  9
$PUCSYDIR
 10
0.0
 20
1.0
 30
0.0
  9
$PUCSORTHOREF
  2

  9
$PUCSORTHOVIEW
 70
0
  9
$PUCSORGTOP
 10
0.0
 20
0.0
 30
0.0
  9
$PUCSORGBOTTOM
 10
0.0
 20
0.0
 30
0.0
  9
$PUCSORGLEFT
 10
0.0
 20
0.0
 30
0.0
  9
$PUCSORGRIGHT
 10
0.0
 20
0.0
 30
0.0
  9
$PUCSORGFRONT
 10
0.0
 20
0.0
 30
0.0
  9
$PUCSORGBACK
 10
0.0
 20
0.0
 30
0.0
  9
$USERI1
 70
0
  9
$USERI2
 70
0
  9
$USERI3
 70
0
  9
$USERI4
 70
0
  9
$USERI5
 70
0
  9
$USERR1
 40
0.0
  9
$USERR2
 40
0.0
  9
$USERR3
 40
0.0
  9
$USERR4
 40
0.0
  9
$USERR5
 40
0.0
  9
$WORLDVIEW
 70
1
  9
$SHADEDGE
 70
3
  9
$SHADEDIF
 70
70
  9
$TILEMODE
 70
1
  9
$MAXACTVP
 70
64
  9
$PINSBASE
 10
0.0
 20
0.0
 30
0.0
  9
$PLIMCHECK
 70
0
  9
$PEXTMIN
 10
1e+20
 20
1e+20
 30
1e+20
  9
$PEXTMAX
 10
-1e+20
 20
-1e+20
 30
-1e+20
  9
$PLIMMIN
 10
0.0
 20
0.0
  9
$PLIMMAX
 10
420.0
 20
297.0
  9
$UNITMODE
 70
0
  9
$VISRETAIN
 70
1
  9
$PLINEGEN
 70
0
  9
$PSLTSCALE
 70
1
  9
$TREEDEPTH
 70
3020
  9
$CMLSTYLE
  2
Standard
  9
$CMLJUST
 70
0
  9
$CMLSCALE
 40
20.0
  9
$PROXYGRAPHICS
 70
1
  9
$MEASUREMENT
 70
1
  9
$CELWEIGHT
370
-1
  9
$ENDCAPS
280
0
  9
$JOINSTYLE
280
0
  9
$LWDISPLAY
290
0
  9
$INSUNITS
 70
6
  9
$HYPERLINKBASE
  1

  9
$STYLESHEET
  1

  9
$XEDIT
290
1
  9
$CEPSNTYPE
380
0
  9
$PSTYLEMODE
290
1
  9
$FINGERPRINTGUID
  2
{5CC75940-EE74-4216-A355-CACCE85202DC}
  9
$VERSIONGUID
  2
{53A21FA1-4124-4C3E-B0F4-4D5345E1762F}
  9
$EXTNAMES
290
1
  9
$PSVPSCALE
 40
0.0
  9
$OLESTARTUP
290
0
  9
$SORTENTS
280
127
  9
$INDEXCTL
280
0
  9
$HIDETEXT
280
1
  9
$XCLIPFRAME
280
1
  9
$HALOGAP
280
0
  9
$OBSCOLOR
 70
257
  9
$OBSLTYPE
280
0
  9
$INTERSECTIONDISPLAY
280
0
  9
$INTERSECTIONCOLOR
 70
257
  9
$DIMASSOC
280
2
  9
$PROJECTNAME
  1

  9
$CAMERADISPLAY
290
0
  9
$LENSLENGTH
 40
50.0
  9
$CAMERAHEIGHT
 40
0.0
  9
$STEPSPERSEC
 40
24.0
  9
$STEPSIZE
 40
100.0
  9
$3DDWFPREC
 40
2.0
  9
$PSOLWIDTH
 40
0.005
  9
$PSOLHEIGHT
 40
0.08
  9
$LOFTANG1
 40
1.570796326795
  9
$LOFTANG2
 40
1.570796326795
  9
$LOFTMAG1
 40
0.0
  9
$LOFTMAG2
 40
0.0
  9
$LOFTPARAM
 70
7
  9
$LOFTNORMALS
280
1
  9
$LATITUDE
 40
37.795
  9
$LONGITUDE
 40
-122.394
  9
$NORTHDIRECTION
 40
0.0
  9
$TIMEZONE
 70
-8000
  9
$LIGHTGLYPHDISPLAY
280
1
  9
$TILEMODELIGHTSYNCH
280
1
  9
$CMATERIAL
347
20
  9
$SOLIDHIST
280
0
  9
$SHOWHIST
280
1
  9
$DWFFRAME
280
2
  9
$DGNFRAME
280
2
  9
$REALWORLDSCALE
290
1
  9
$INTERFERECOLOR
 62
256
  9
$CSHADOW
280
0
  9
$SHADOWPLANELOCATION
 40
0.0
  0
ENDSEC
  0
SECTION
  2
CLASSES
  0
CLASS
  1
ACDBDICTIONARYWDFLT
  2
AcDbDictionaryWithDefault
  3
ObjectDBX Classes
 90
0
 91
0
280
0
281
0
  0
CLASS
  1
SUN
  2
AcDbSun
  3
SCENEOE
 90
1153
 91
0
280
0
281
0
  0
CLASS
  1
VISUALSTYLE
  2
AcDbVisualStyle
  3
ObjectDBX Classes
 90
4095
 91
0
280
0
281
0
  0
CLASS
  1
MATERIAL
  2
AcDbMaterial
  3
ObjectDBX Classes
 90
1153
 91
0
280
0
281
0
  0
CLASS
  1
SCALE
  2
AcDbScale
  3
ObjectDBX Classes
 90
1153
 91
0
280
0
281
0
  0
CLASS
  1
TABLESTYLE
  2
AcDbTableStyle
  3
ObjectDBX Classes
 90
4095
 91
0
280
0
281
0
  0
CLASS
  1
MLEADERSTYLE
  2
AcDbMLeaderStyle
  3
ACDB_MLEADERSTYLE_CLASS
 90
4095
 91
0
280
0
281
0
  0
CLASS
  1
DICTIONARYVAR
  2
AcDbDictionaryVar
  3
ObjectDBX Classes
 90
0
 91
0
280
0
281
0
  0
CLASS
  1
CELLSTYLEMAP
  2
AcDbCellStyleMap
  3
ObjectDBX Classes
 90
1152
 91
0
280
0
281
0
  0
CLASS
  1
MENTALRAYRENDERSETTINGS
  2
AcDbMentalRayRenderSettings
  3
SCENEOE
 90
1024
 91
0
280
0
281
0
  0
CLASS
  1
ACDBDETAILVIEWSTYLE
  2
AcDbDetailViewStyle
  3
ObjectDBX Classes
 90
1025
 91
0
280
0
281
0
  0
CLASS
  1
ACDBSECTIONVIEWSTYLE
  2
AcDbSectionViewStyle
  3
ObjectDBX Classes
 90
1025
 91
0
280
0
281
0
  0
CLASS
  1
RASTERVARIABLES
  2
AcDbRasterVariables
  3
ISM
 90
0
 91
0
280
0
281
0
  0
CLASS
  1
ACDBPLACEHOLDER
  2
AcDbPlaceHolder
  3
ObjectDBX Classes
 90
0
 91
0
280
0
281
0
  0
CLASS
  1
LAYOUT
  2
AcDbLayout
  3
ObjectDBX Classes
 90
0
 91
0
280
0
281
0
  0
ENDSEC
  0
SECTION
  2
TABLES
  0
TABLE
  2
VPORT
  5
8
330
0
100
AcDbSymbolTable
 70
1
  0
VPORT
  5
23
330
8
100
AcDbSymbolTableRecord
100
AcDbViewportTableRecord
  2
*Active
 70
0
 10
0.0
 20
0.0
 11
1.0
 21
1.0
 12
0.0
 22
0.0
 13
0.0
 23
0.0
 14
0.5
 24
0.5
 15
0.5
 25
0.5
 16
0.0
 26
0.0
 36
1.0
 17
0.0
 27
0.0
 37
0.0
 40
1000.0
 41
1.34
 42
50.0
 43
0.0
 44
0.0
 50
0.0
 51
0.0
 71
0
 72
1000
 73
1
 74
3
 75
0
 76
0
 77
0
 78
0
281
0
 65
0
146
0.0
  0
ENDTAB
  0
TABLE
  2
LTYPE
  5
2
330
0
100
AcDbSymbolTable
 70
3
  0
LTYPE
  5
24
330
2
100
AcDbSymbolTableRecord
100
AcDbLinetypeTableRecord
  2
ByBlock
 70
0
  3

 72
65
 73
0
 40
0.0
  0
LTYPE
  5
25
330
2
100
AcDbSymbolTableRecord
100
AcDbLinetypeTableRecord
  2
ByLayer
 70
0
  3

 72
65
 73
0
 40
0.0
  0
LTYPE
  5
26
330
2
100
AcDbSymbolTableRecord
100
AcDbLinetypeTableRecord
  2
Continuous
 70
0
  3

 72
65
 73
0
 40
0.0
  0
ENDTAB
  0
TABLE
  2
LAYER
  5
1
330
0
100
AcDbSymbolTable
 70
2
  0
LAYER
  5
27
330
1
100
AcDbSymbolTableRecord
100
AcDbLayerTableRecord
  2
0
 70
0
 62
7
  6
Continuous
370
-3
390
13
347
21
  0
LAYER
  5
28
330
1
100
AcDbSymbolTableRecord
100
AcDbLayerTableRecord
  2
Defpoints
 70
0
 62
7
  6
Continuous
290
0
370
-3
390
13
347
21
  0
ENDTAB
  0
TABLE
  2
STYLE
  5
5
330
0
100
AcDbSymbolTable
 70
1
  0
STYLE
  5
29
330
5
100
AcDbSymbolTableRecord
100
AcDbTextStyleTableRecord
  2
Standard
 70
0
 40
0.0
 41
1.0
 50
0.0
 71
0
 42
2.5
  3
txt
  4

  0
ENDTAB
  0
TABLE
  2
VIEW
  5
7
330
0
100
AcDbSymbolTable
 70
0
  0
ENDTAB
  0
TABLE
  2
UCS
  5
6
330
0
100
AcDbSymbolTable
 70
0
  0
ENDTAB
  0
TABLE
  2
APPID
  5
3
330
0
100
AcDbSymbolTable
 70
3
  0
APPID
  5
2A
330
3
100
AcDbSymbolTableRecord
100
AcDbRegAppTableRecord
  2
ACAD
 70
0
  0
APPID
  5
3E
330
3
100
AcDbSymbolTableRecord
100
AcDbRegAppTableRecord
  2
HATCHBACKGROUNDCOLOR
 70
0
  0
APPID
  5
3F
330
3
100
AcDbSymbolTableRecord
100
AcDbRegAppTableRecord
  2
EZDXF
 70
0
  0
ENDTAB
  0
TABLE
  2
DIMSTYLE
  5
4
330
0
100
AcDbSymbolTable
 70
1
100
AcDbDimStyleTable
  0
DIMSTYLE
105
2B
330
4
100
AcDbSymbolTableRecord
100
AcDbDimStyleTableRecord
  2
Standard
 70
0
 40
1.0
 41
2.5
 42
0.625
 43
3.75
 44
1.25
 45
0.0
 46
0.0
 47
0.0
 48
0.0
 49
2.5
140
2.5
141
2.5
142
0.0
143
0.03937007874
144
1.0
145
0.0
146
1.0
147
0.625
148
0.0
 69
0
 70
0
 71
0
 72
0
 73
0
 74
0
 75
0
 76
0
 77
1
 78
8
 79
3
170
0
171
3
172
1
173
0
174
0
175
0
176
0
177
0
178
0
179
2
271
2
272
2
273
2
274
3
275
0
276
0
277
2
278
44
279
0
280
0
281
0
282
0
283
0
284
8
285
0
286
0
288
0
289
3
290
0
371
-2
372
-2
  0
ENDTAB
  0
TABLE
  2
BLOCK_RECORD
  5
9
330
0
100
AcDbSymbolTable
 70
2
  0
BLOCK_RECORD
  5
17
330
9
100
AcDbSymbolTableRecord
100
AcDbBlockTableRecord
  2
*Model_Space
340
1A
 70
0
280
1
281
0
  0
BLOCK_RECORD
  5
1B
330
9
100
AcDbSymbolTableRecord
100
AcDbBlockTableRecord
  2
*Paper_Space
340
1E
 70
0
280
1
281
0
  0
ENDTAB
  0
ENDSEC
  0
SECTION
  2
BLOCKS
  0
BLOCK
  5
18
330
17
100
AcDbEntity
  8
0
100
AcDbBlockBegin
  2
*Model_Space
 70
0
 10
0.0
 20
0.0
 30
0.0
  3
*Model_Space
  1

  0
ENDBLK
  5
19
330
17
100
AcDbEntity
  8
0
100
AcDbBlockEnd
  0
BLOCK
  5
1C
330
1B
100
AcDbEntity
  8
0
100
AcDbBlockBegin
  2
*Paper_Space
 70
0
 10
0.0
 20
0.0
 30
0.0
  3
*Paper_Space
  1

  0
ENDBLK
  5
1D
330
1B
100
AcDbEntity
  8
0
100
AcDbBlockEnd
  0
ENDSEC
  0
SECTION
  2
ENTITIES
  0
LWPOLYLINE
  5
2F
330
17
100
AcDbEntity
  8
0
100
AcDbPolyline
 90
20
 70
1
 10
0.5000999999999749
 20
4.506129999999956
 10
0.5000999999999749
 20
79.50612999999996
 10
15.500099999999918
 20
79.50612999999993
 10
15.500099999999918
 20
83.50612999999993
 10
30.500099999999918
 20
83.50612999999993
 10
30.500099999999918
 20
79.50612999999993
 10
45.50009999999992
 20
79.50612999999993
 10
45.50009999999992
 20
68.50612999999993
 10
41.50009999999992
 20
68.50612999999993
 10
41.50009999999992
 20
57.00612999999993
 10
45.50009999999992
 20
57.00612999999993
 10
45.50009999999992
 20
27.006129999999956
 10
41.50009999999992
 20
27.006129999999956
 10
41.50009999999992
 20
15.506129999999956
 10
45.50009999999992
 20
15.506129999999928
 10
45.50009999999992
 20
4.506129999999899
 10
30.500099999999918
 20
4.506129999999899
 10
30.500099999999918
 20
0.5061299999999278
 10
15.500099999999918
 20
0.5061299999999278
 10
15.500099999999918
 20
4.506129999999899
  0
LWPOLYLINE
  5
30
330
17
100
AcDbEntity
  8
0
100
AcDbPolyline
 90
20
 70
1
 10
0.5001199999999812
 20
88.53279999999995
 10
0.5001199999999812
 20
163.53279999999995
 10
15.500119999999924
 20
163.53279999999992
 10
15.500119999999924
 20
167.53279999999992
 10
30.500119999999924
 20
167.53279999999992
 10
30.500119999999924
 20
163.53279999999992
 10
45.500119999999924
 20
163.53279999999992
 10
45.500119999999924
 20
152.53279999999992
 10
41.500119999999924
 20
152.53279999999992
 10
41.500119999999924
 20
141.03279999999992
 10
45.500119999999924
 20
141.03279999999992
 10
45.500119999999924
 20
111.03279999999995
 10
41.500119999999924
 20
111.03279999999995
 10
41.500119999999924
 20
99.53279999999995
 10
45.500119999999924
 20
99.53279999999992
 10
45.500119999999924
 20
88.5327999999999
 10
30.500119999999924
 20
88.5327999999999
 10
30.500119999999924
 20
84.53279999999992
 10
15.500119999999924
 20
84.53279999999992
 10
15.500119999999924
 20
88.5327999999999
  0
LWPOLYLINE
  5
31
330
17
100
AcDbEntity
  8
0
100
AcDbPolyline
 90
20
 70
1
 10
0.5014300000000276
 20
172.54271999999992
 10
0.5014300000000276
 20
247.54271999999992
 10
15.501430000000028
 20
247.54271999999992
 10
15.501430000000028
 20
251.54271999999992
 10
30.501430000000028
 20
251.54271999999992
 10
30.501430000000028
 20
247.54271999999992
 10
45.50143000000003
 20
247.54271999999992
 10
45.50143000000003
 20
236.54271999999992
 10
41.50143000000003
 20
236.54271999999992
 10
41.50143000000003
 20
225.04271999999992
 10
45.50143000000003
 20
225.04271999999992
 10
45.50143000000003
 20
195.04271999999992
 10
41.50143000000003
 20
195.04271999999992
 10
41.50143000000003
 20
183.54271999999992
 10
45.50143000000003
 20
183.54271999999992
 10
45.50143000000003
 20
172.54271999999992
 10
30.501430000000028
 20
172.54271999999992
 10
30.501430000000028
 20
168.54271999999992
 10
15.501430000000028
 20
168.54271999999992
 10
15.501430000000028
 20
172.54271999999992
  0
LWPOLYLINE
  5
32
330
17
100
AcDbEntity
  8
0
100
AcDbPolyline
 90
20
 70
1
 10
0.5012800000000084
 20
256.5532999999999
 10
0.5012800000000084
 20
331.5532999999999
 10
15.501280000000008
 20
331.5532999999999
 10
15.501280000000008
 20
335.5532999999999
 10
30.50128000000001
 20
335.5532999999999
 10
30.50128000000001
 20
331.5532999999999
 10
45.50128000000001
 20
331.5532999999999
 10
45.50128000000001
 20
320.5532999999999
 10
41.50128000000001
 20
320.5532999999999
 10
41.50128000000001
 20
309.0532999999999
 10
45.50128000000001
 20
309.0532999999999
 10
45.50128000000001
 20
279.0532999999999
 10
41.50128000000001
 20
279.0532999999999
 10
41.50128000000001
 20
267.5532999999999
 10
45.50128000000001
 20
267.5532999999999
 10
45.50128000000001
 20
256.5532999999999
 10
30.50128000000001
 20
256.5532999999999
 10
30.50128000000001
 20
252.55329999999992
 10
15.501280000000008
 20
252.55329999999992
 10
15.501280000000008
 20
256.5532999999999
  0
LWPOLYLINE
  5
33
330
17
100
AcDbEntity
  8
0
100
AcDbPolyline
 90
28
 70
1
 10
38.000599232047364
 20
393.0646886495671
 10
38.00060383974119
 20
363.0646886495674
 10
42.00060383974113
 20
363.0646892639266
 10
42.000605606023726
 20
351.5646892639267
 10
38.00060560602378
 20
351.56468864956753
 10
38.000607295511486
 20
340.5646886495677
 10
27.0006072955116
 20
340.56468696007994
 10
27.00060790987078
 20
336.56468696008
 10
15.50060790987095
 20
336.56468519379735
 10
15.50060729551177
 20
340.56468519379735
 10
4.500607295511827
 20
340.56468350430964
 10
4.5006056060241235
 20
351.56468350430947
 10
0.5006056060242372
 20
351.5646828899503
 10
0.5006038397416432
 20
363.0646828899502
 10
4.5006038397415296
 20
363.06468350430936
 10
4.500599232047705
 20
393.06468350430896
 10
0.5005992320478185
 20
393.06468288994984
 10
0.5005974657651677
 20
404.56468288994967
 10
4.500597465765054
 20
404.56468350430885
 10
4.5005957762773505
 20
415.56468350430873
 10
15.500595776277294
 20
415.56468519379644
 10
15.500595161918113
 20
419.56468519379644
 10
27.000595161917943
 20
419.56468696007903
 10
27.000595776277123
 20
415.5646869600791
 10
38.00059577627701
 20
415.5646886495668
 10
38.00059746576471
 20
404.56468864956696
 10
42.000597465764656
 20
404.5646892639261
 10
42.00059923204731
 20
393.06468926392625
  0
LWPOLYLINE
  5
34
330
17
100
AcDbEntity
  8
0
100
AcDbPolyline
 90
28
 70
1
 10
38.00199923204735
 20
477.08434864956706
 10
38.00200383974118
 20
447.0843486495674
 10
42.00200383974112
 20
447.0843492639266
 10
42.002005606023715
 20
435.5843492639267
 10
38.00200560602377
 20
435.5843486495675
 10
38.002007295511476
 20
424.5843486495677
 10
27.00200729551159
 20
424.5843469600799
 10
27.00200790987077
 20
420.58434696008
 10
15.50200790987094
 20
420.5843451937974
 10
15.50200729551176
 20
424.58434519379733
 10
4.502007295511817
 20
424.5843435043096
 10
4.502005606024113
 20
435.58434350430946
 10
0.5020056060242268
 20
435.5843428899503
 10
0.5020038397416329
 20
447.08434288995016
 10
4.502003839741519
 20
447.08434350430935
 10
4.5019992320476945
 20
477.08434350430895
 10
0.5019992320478082
 20
477.0843428899498
 10
0.5019974657651574
 20
488.58434288994965
 10
4.501997465765044
 20
488.58434350430883
 10
4.50199577627734
 20
499.5843435043087
 10
15.501995776277283
 20
499.5843451937964
 10
15.501995161918103
 20
503.58434519379637
 10
27.001995161917932
 20
503.584346960079
 10
27.001995776277113
 20
499.5843469600791
 10
38.001995776277
 20
499.5843486495668
 10
38.0019974657647
 20
488.58434864956695
 10
42.001997465764646
 20
488.5843492639261
 10
42.0019992320473
 20
477.08434926392624
  0
LWPOLYLINE
  5
35
330
17
100
AcDbEntity
  8
0
100
AcDbPolyline
 90
16
 70
1
 10
88.0008163739761
 20
0.5356943773096532
 10
46.50081637397659
 20
0.5356880033332274
 10
46.50081407012969
 20
15.535688003333046
 10
50.50081407012965
 20
15.53568861769222
 10
50.500811766282744
 20
30.535688617692042
 10
46.50081176628279
 20
30.53568800333287
 10
46.50080946243589
 20
45.535688003332695
 10
61.5008094624357
 20
45.53569030717959
 10
61.50081007679487
 20
41.53569030717964
 10
73.00081007679475
 20
41.535692073462265
 10
73.00080946243558
 20
45.535692073462215
 10
88.0008094624354
 20
45.53569437730912
 10
88.00081176628228
 20
30.535694377309298
 10
84.00081176628234
 20
30.535693762950125
 10
84.00081407012924
 20
15.535693762950302
 10
88.0008140701292
 20
15.535694377309476
  0
LWPOLYLINE
  5
36
330
17
100
AcDbEntity
  8
0
100
AcDbPolyline
 90
16
 70
1
 10
42.000616373973884
 20
504.61223279142143
 10
0.5006163739743954
 20
504.612226417445
 10
0.5006140701275115
 20
519.6122264174448
 10
4.500614070127455
 20
519.612227031804
 10
4.500611766280514
 20
534.6122270318039
 10
0.5006117662805991
 20
534.6122264174446
 10
0.5006094624336868
 20
549.6122264174445
 10
15.50060946243346
 20
549.6122287212913
 10
15.50061007679264
 20
545.6122287212914
 10
27.000610076792526
 20
545.612230487574
 10
27.000609462433374
 20
549.612230487574
 10
42.000609462433175
 20
549.6122327914209
 10
42.00061176628009
 20
534.6122327914211
 10
38.000611766280144
 20
534.6122321770619
 10
38.00061407012706
 20
519.6122321770621
 10
42.000614070127
 20
519.6122327914212
  0
LWPOLYLINE
  5
37
330
17
100
AcDbEntity
  8
0
100
AcDbPolyline
 90
16
 70
1
 10
88.00026091139384
 20
46.54048926392338
 10
46.50026091139435
 20
46.54048288994693
 10
46.50025860754741
 20
61.54048288994676
 10
50.500258607547295
 20
61.54048350430594
 10
50.50025630370041
 20
76.54048350430577
 10
46.500256303700525
 20
76.54048288994659
 10
46.50025399985364
 20
91.54048288994642
 10
61.50025399985347
 20
91.5404851937933
 10
61.50025461421265
 20
87.54048519379336
 10
73.00025461421248
 20
87.54048696007601
 10
73.0002539998533
 20
91.54048696007595
 10
88.00025399985313
 20
91.54048926392284
 10
88.00025630370001
 20
76.540489263923
 10
84.00025630370007
 20
76.54048864956383
 10
84.00025860754695
 20
61.540488649564
 10
88.0002586075469
 20
61.54048926392318
  0
LWPOLYLINE
  5
38
330
17
100
AcDbEntity
  8
0
100
AcDbPolyline
 90
16
 70
1
 10
88.00234091139382
 20
92.56224926392338
 10
46.50234091139433
 20
92.56224288994693
 10
46.50233860754739
 20
107.56224288994676
 10
50.50233860754727
 20
107.56224350430594
 10
50.50233630370039
 20
122.56224350430577
 10
46.5023363037005
 20
122.56224288994659
 10
46.50233399985362
 20
137.56224288994642
 10
61.50233399985345
 20
137.5622451937933
 10
61.50233461421263
 20
133.56224519379336
 10
73.00233461421246
 20
133.562246960076
 10
73.00233399985328
 20
137.56224696007595
 10
88.00233399985311
 20
137.56224926392284
 10
88.00233630369999
 20
122.56224926392301
 10
84.00233630370005
 20
122.56224864956383
 10
84.00233860754693
 20
107.562248649564
 10
88.00233860754687
 20
107.56224926392318
  0
LWPOLYLINE
  5
39
330
17
100
AcDbEntity
  8
0
100
AcDbPolyline
 90
16
 70
1
 10
88.00164828370387
 20
138.5756392639239
 10
46.501648283704384
 20
138.57563288994746
 10
46.5016459798575
 20
153.5756328899473
 10
50.501645979857386
 20
153.57563350430647
 10
50.5016436760105
 20
168.5756335043063
 10
46.501643676010616
 20
168.57563288994712
 10
46.501641372163675
 20
183.57563288994695
 10
61.501641372163505
 20
183.57563519379386
 10
61.501641986522685
 20
179.57563519379394
 10
73.00164198652251
 20
179.57563696007657
 10
73.00164137216333
 20
183.57563696007648
 10
88.00164137216316
 20
183.5756392639234
 10
88.0016436760101
 20
168.57563926392356
 10
84.00164367601016
 20
168.57563864956438
 10
84.00164597985705
 20
153.57563864956455
 10
88.00164597985699
 20
153.57563926392373
  0
LWPOLYLINE
  5
3A
330
17
100
AcDbEntity
  8
0
100
AcDbPolyline
 90
16
 70
1
 10
88.00216828370387
 20
184.5851012639239
 10
46.50216828370438
 20
184.58509488994744
 10
46.502165979857494
 20
199.58509488994727
 10
50.50216597985738
 20
199.58509550430645
 10
50.5021636760105
 20
214.58509550430628
 10
46.50216367601061
 20
214.5850948899471
 10
46.50216137216367
 20
229.58509488994693
 10
61.5021613721635
 20
229.58509719379384
 10
61.50216198652268
 20
225.58509719379393
 10
73.00216198652251
 20
225.58509896007655
 10
73.00216137216333
 20
229.58509896007646
 10
88.00216137216316
 20
229.58510126392338
 10
88.0021636760101
 20
214.58510126392355
 10
84.00216367601016
 20
214.58510064956437
 10
84.00216597985704
 20
199.58510064956454
 10
88.00216597985698
 20
199.58510126392372
  0
LWPOLYLINE
  5
3B
330
17
100
AcDbEntity
  8
0
100
AcDbPolyline
 90
16
 70
1
 10
50.50234060019038
 20
275.5853897071794
 10
84.00234060019028
 20
275.58538725480844
 10
84.00233950211373
 20
260.58538725480844
 10
88.00233950211373
 20
260.58538696198804
 10
88.00233840403718
 20
245.58538696198806
 10
84.00233840403718
 20
245.5853872548085
 10
84.00233730596064
 20
230.58538725480852
 10
73.00233730596065
 20
230.58538806006464
 10
73.00233759878107
 20
234.58538806006464
 10
61.5023375987811
 20
234.58538890192335
 10
61.50233730596068
 20
230.58538890192335
 10
50.502337305960715
 20
230.5853897071795
 10
50.50233840403727
 20
245.58538970717944
 10
46.50233840403728
 20
245.58538999999988
 10
46.502339502113834
 20
260.58538999999985
 10
50.50233950211382
 20
260.5853897071794
  0
LWPOLYLINE
  5
3C
330
17
100
AcDbEntity
  8
0
100
AcDbPolyline
 90
16
 70
1
 10
43.00260311403537
 20
394.07789970717926
 10
76.50260311403528
 20
394.0778972548083
 10
76.50260201595873
 20
379.0778972548083
 10
80.50260201595873
 20
379.0778969619879
 10
80.50260091788216
 20
364.07789696198796
 10
76.50260091788218
 20
364.07789725480836
 10
76.50259981980562
 20
349.0778972548084
 10
65.50259981980565
 20
349.0778980600645
 10
65.50260011262606
 20
353.0778980600645
 10
54.0026001126261
 20
353.0778989019232
 10
54.00259981980568
 20
349.0778989019232
 10
43.00259981980571
 20
349.07789970717937
 10
43.00260091788226
 20
364.0778997071793
 10
39.002600917882276
 20
364.0778999999998
 10
39.00260201595883
 20
379.0778999999997
 10
43.002602015958814
 20
379.0778997071793
  0
LWPOLYLINE
  5
3D
330
17
100
AcDbEntity
  8
0
100
AcDbPolyline
 90
20
 70
1
 10
61.5018
 20
318.10513
 10
61.5018
 20
314.10513
 10
50.5018
 20
314.10513
 10
50.5018
 20
303.10513
 10
46.5018
 20
303.10513
 10
46.5018
 20
291.60513
 10
50.5018
 20
291.60513
 10
50.5018
 20
280.60513
 10
61.5018
 20
280.60513
 10
61.5018
 20
276.60513
 10
73.00179999999997
 20
276.60513
 10
73.00179999999997
 20
280.60513
 10
84.0018
 20
280.60513
 10
84.0018
 20
291.60513
 10
88.0018
 20
291.60513
 10
88.0018
 20
303.10513
 10
84.0018
 20
303.10513
 10
84.0018
 20
314.10513
 10
73.00179999999997
 20
314.10513
 10
73.00179999999997
 20
318.10513
  0
ENDSEC
  0
SECTION
  2
OBJECTS
  0
DICTIONARY
  5
A
330
0
100
AcDbDictionary
280
0
281
1
  3
ACAD_COLOR
350
B
  3
ACAD_GROUP
350
C
  3
ACAD_LAYOUT
350
D
  3
ACAD_MATERIAL
350
E
  3
ACAD_MLEADERSTYLE
350
F
  3
ACAD_MLINESTYLE
350
10
  3
ACAD_PLOTSETTINGS
350
11
  3
ACAD_PLOTSTYLENAME
350
12
  3
ACAD_SCALELIST
350
14
  3
ACAD_TABLESTYLE
350
15
  3
ACAD_VISUALSTYLE
350
16
  3
EZDXF_META
350
2D
  0
DICTIONARY
  5
B
330
A
100
AcDbDictionary
280
0
281
1
  0
DICTIONARY
  5
C
330
A
100
AcDbDictionary
280
0
281
1
  0
DICTIONARY
  5
D
330
A
100
AcDbDictionary
280
0
281
1
  3
Model
350
1A
  3
Layout1
350
1E
  0
DICTIONARY
  5
E
330
A
100
AcDbDictionary
280
0
281
1
  3
ByBlock
350
1F
  3
ByLayer
350
20
  3
Global
350
21
  0
DICTIONARY
  5
F
330
A
100
AcDbDictionary
280
0
281
1
  3
Standard
350
2C
  0
DICTIONARY
  5
10
330
A
100
AcDbDictionary
280
0
281
1
  3
Standard
350
22
  0
DICTIONARY
  5
11
330
A
100
AcDbDictionary
280
0
281
1
  0
ACDBDICTIONARYWDFLT
  5
12
330
A
100
AcDbDictionary
280
0
281
1
  3
Normal
350
13
100
AcDbDictionaryWithDefault
340
13
  0
ACDBPLACEHOLDER
  5
13
330
12
  0
DICTIONARY
  5
14
330
A
100
AcDbDictionary
280
0
281
1
  0
DICTIONARY
  5
15
330
A
100
AcDbDictionary
280
0
281
1
  0
DICTIONARY
  5
16
330
A
100
AcDbDictionary
280
0
281
1
  0
LAYOUT
  5
1A
330
D
100
AcDbPlotSettings
  1

  4
A3
  6

 40
7.5
 41
20.0
 42
7.5
 43
20.0
 44
420.0
 45
297.0
 46
0.0
 47
0.0
 48
0.0
 49
0.0
140
0.0
141
0.0
142
1.0
143
1.0
 70
1024
 72
1
 73
0
 74
5
  7

 75
16
 76
0
 77
2
 78
300
147
1.0
148
0.0
149
0.0
100
AcDbLayout
  1
Model
 70
1
 71
0
 10
0.0
 20
0.0
 11
420.0
 21
297.0
 12
0.0
 22
0.0
 32
0.0
 14
1e+20
 24
1e+20
 34
1e+20
 15
-1e+20
 25
-1e+20
 35
-1e+20
146
0.0
 13
0.0
 23
0.0
 33
0.0
 16
1.0
 26
0.0
 36
0.0
 17
0.0
 27
1.0
 37
0.0
 76
1
330
17
  0
LAYOUT
  5
1E
330
D
100
AcDbPlotSettings
  1

  4
A3
  6

 40
7.5
 41
20.0
 42
7.5
 43
20.0
 44
420.0
 45
297.0
 46
0.0
 47
0.0
 48
0.0
 49
0.0
140
0.0
141
0.0
142
1.0
143
1.0
 70
0
 72
1
 73
0
 74
5
  7

 75
16
 76
0
 77
2
 78
300
147
1.0
148
0.0
149
0.0
100
AcDbLayout
  1
Layout1
 70
1
 71
1
 10
0.0
 20
0.0
 11
420.0
 21
297.0
 12
0.0
 22
0.0
 32
0.0
 14
1e+20
 24
1e+20
 34
1e+20
 15
-1e+20
 25
-1e+20
 35
-1e+20
146
0.0
 13
0.0
 23
0.0
 33
0.0
 16
1.0
 26
0.0
 36
0.0
 17
0.0
 27
1.0
 37
0.0
 76
1
330
1B
  0
MATERIAL
  5
1F
102
{ACAD_REACTORS
330
E
102
}
330
E
100
AcDbMaterial
  1
ByBlock
  2

 70
0
 40
1.0
 71
1
 41
1.0
 91
-1023410177
 42
1.0
 72
1
  3

 73
1
 74
1
 75
1
 44
0.5
 73
0
 45
1.0
 46
1.0
 77
1
  4

 78
1
 79
1
170
1
 48
1.0
171
1
  6

172
1
173
1
174
1
140
1.0
141
1.0
175
1
  7

176
1
177
1
178
1
143
1.0
179
1
  8

270
1
271
1
272
1
145
1.0
146
1.0
273
1
  9

274
1
275
1
276
1
 42
1.0
 72
1
  3

 73
1
 74
1
 75
1
 94
63
  0
MATERIAL
  5
20
102
{ACAD_REACTORS
330
E
102
}
330
E
100
AcDbMaterial
  1
ByLayer
  2

 70
0
 40
1.0
 71
1
 41
1.0
 91
-1023410177
 42
1.0
 72
1
  3

 73
1
 74
1
 75
1
 44
0.5
 73
0
 45
1.0
 46
1.0
 77
1
  4

 78
1
 79
1
170
1
 48
1.0
171
1
  6

172
1
173
1
174
1
140
1.0
141
1.0
175
1
  7

176
1
177
1
178
1
143
1.0
179
1
  8

270
1
271
1
272
1
145
1.0
146
1.0
273
1
  9

274
1
275
1
276
1
 42
1.0
 72
1
  3

 73
1
 74
1
 75
1
 94
63
  0
MATERIAL
  5
21
102
{ACAD_REACTORS
330
E
102
}
330
E
100
AcDbMaterial
  1
Global
  2

 70
0
 40
1.0
 71
1
 41
1.0
 91
-1023410177
 42
1.0
 72
1
  3

 73
1
 74
1
 75
1
 44
0.5
 73
0
 45
1.0
 46
1.0
 77
1
  4

 78
1
 79
1
170
1
 48
1.0
171
1
  6

172
1
173
1
174
1
140
1.0
141
1.0
175
1
  7

176
1
177
1
178
1
143
1.0
179
1
  8

270
1
271
1
272
1
145
1.0
146
1.0
273
1
  9

274
1
275
1
276
1
 42
1.0
 72
1
  3

 73
1
 74
1
 75
1
 94
63
  0
MLINESTYLE
  5
22
102
{ACAD_REACTORS
330
10
102
}
330
10
100
AcDbMlineStyle
  2
Standard
 70
0
  3

 62
256
 51
90.0
 52
90.0
 71
2
 49
0.5
 62
256
  6
BYLAYER
 49
-0.5
 62
256
  6
BYLAYER
  0
MLEADERSTYLE
  5
2C
102
{ACAD_REACTORS
330
F
102
}
330
F
100
AcDbMLeaderStyle
179
2
170
2
171
1
172
0
 90
2
 40
0.0
 41
0.0
173
1
 91
-1056964608
 92
-2
290
1
 42
2.0
291
1
 43
8.0
  3
Standard
 44
4.0
300

342
29
174
1
175
1
176
0
178
1
 93
-1056964608
 45
4.0
292
0
297
0
 46
4.0
 94
-1056964608
 47
1.0
 49
1.0
140
1.0
294
1
141
0.0
177
0
142
1.0
295
0
296
0
143
3.75
271
0
272
9
273
9
  0
DICTIONARY
  5
2D
330
A
100
AcDbDictionary
280
1
281
1
  3
CREATED_BY_EZDXF
350
2E
  3
WRITTEN_BY_EZDXF
350
40
  0
DICTIONARYVAR
  5
2E
330
2D
100
DictionaryVariables
280
0
  1
1.3.5 @ 2025-03-19T21:48:10.088038+00:00
  0
DICTIONARYVAR
  5
40
330
2D
100
DictionaryVariables
280
0
  1
1.3.5 @ 2025-03-19T21:48:10.091421+00:00
  0
ENDSEC
  0
EOF
