  0
SECTION
  2
HEADER
  9
$ACADVER
  1
AC1024
  9
$ACADMAINTVER
 70
6
  9
$DWGCODEPAGE
  3
ANSI_1252
  9
$LASTSAVEDBY
  1
ezdxf
  9
$INSBASE
 10
0.0
 20
0.0
 30
0.0
  9
$EXTMIN
 10
1e+20
 20
1e+20
 30
1e+20
  9
$EXTMAX
 10
-1e+20
 20
-1e+20
 30
-1e+20
  9
$LIMMIN
 10
0.0
 20
0.0
  9
$LIMMAX
 10
420.0
 20
297.0
  9
$ORTHOMODE
 70
0
  9
$REGENMODE
 70
1
  9
$FILLMODE
 70
1
  9
$QTEXTMODE
 70
0
  9
$MIRRTEXT
 70
1
  9
$LTSCALE
 40
1.0
  9
$ATTMODE
 70
1
  9
$TEXTSIZE
 40
2.5
  9
$TRACEWID
 40
1.0
  9
$TEXTSTYLE
  7
Standard
  9
$CLAYER
  8
0
  9
$CELTYPE
  6
ByLayer
  9
$CECOLOR
 62
256
  9
$CELTSCALE
 40
1.0
  9
$DISPSILH
 70
0
  9
$DIMSCALE
 40
1.0
  9
$DIMASZ
 40
2.5
  9
$DIMEXO
 40
0.625
  9
$DIMDLI
 40
3.75
  9
$DIMRND
 40
0.0
  9
$DIMDLE
 40
0.0
  9
$DIMEXE
 40
1.25
  9
$DIMTP
 40
0.0
  9
$DIMTM
 40
0.0
  9
$DIMTXT
 40
2.5
  9
$DIMCEN
 40
2.5
  9
$DIMTSZ
 40
0.0
  9
$DIMTOL
 70
0
  9
$DIMLIM
 70
0
  9
$DIMTIH
 70
0
  9
$DIMTOH
 70
0
  9
$DIMSE1
 70
0
  9
$DIMSE2
 70
0
  9
$DIMTAD
 70
1
  9
$DIMZIN
 70
8
  9
$DIMBLK
  1

  9
$DIMASO
 70
1
  9
$DIMSHO
 70
1
  9
$DIMPOST
  1

  9
$DIMAPOST
  1

  9
$DIMALT
 70
0
  9
$DIMALTD
 70
3
  9
$DIMALTF
 40
0.03937007874
  9
$DIMLFAC
 40
1.0
  9
$DIMTOFL
 70
1
  9
$DIMTVP
 40
0.0
  9
$DIMTIX
 70
0
  9
$DIMSOXD
 70
0
  9
$DIMSAH
 70
0
  9
$DIMBLK1
  1

  9
$DIMBLK2
  1

  9
$DIMSTYLE
  2
ISO-25
  9
$DIMCLRD
 70
0
  9
$DIMCLRE
 70
0
  9
$DIMCLRT
 70
0
  9
$DIMTFAC
 40
1.0
  9
$DIMGAP
 40
0.625
  9
$DIMJUST
 70
0
  9
$DIMSD1
 70
0
  9
$DIMSD2
 70
0
  9
$DIMTOLJ
 70
0
  9
$DIMTZIN
 70
8
  9
$DIMALTZ
 70
0
  9
$DIMALTTZ
 70
0
  9
$DIMUPT
 70
0
  9
$DIMDEC
 70
2
  9
$DIMTDEC
 70
2
  9
$DIMALTU
 70
2
  9
$DIMALTTD
 70
3
  9
$DIMTXSTY
  7
Standard
  9
$DIMAUNIT
 70
0
  9
$DIMADEC
 70
0
  9
$DIMALTRND
 40
0.0
  9
$DIMAZIN
 70
0
  9
$DIMDSEP
 70
44
  9
$DIMATFIT
 70
3
  9
$DIMFRAC
 70
0
  9
$DIMLDRBLK
  1

  9
$DIMLUNIT
 70
2
  9
$DIMLWD
 70
-2
  9
$DIMLWE
 70
-2
  9
$DIMTMOVE
 70
0
  9
$DIMFXL
 40
1.0
  9
$DIMFXLON
 70
0
  9
$DIMJOGANG
 40
0.785398163397
  9
$DIMTFILL
 70
0
  9
$DIMTFILLCLR
 70
0
  9
$DIMARCSYM
 70
0
  9
$DIMLTYPE
  6

  9
$DIMLTEX1
  6

  9
$DIMLTEX2
  6

  9
$DIMTXTDIRECTION
 70
0
  9
$LUNITS
 70
2
  9
$LUPREC
 70
4
  9
$SKETCHINC
 40
1.0
  9
$FILLETRAD
 40
10.0
  9
$AUNITS
 70
0
  9
$AUPREC
 70
2
  9
$MENU
  1
.
  9
$ELEVATION
 40
0.0
  9
$PELEVATION
 40
0.0
  9
$THICKNESS
 40
0.0
  9
$LIMCHECK
 70
0
  9
$CHAMFERA
 40
0.0
  9
$CHAMFERB
 40
0.0
  9
$CHAMFERC
 40
0.0
  9
$CHAMFERD
 40
0.0
  9
$SKPOLY
 70
0
  9
$TDCREATE
 40
2460751.129236111
  9
$TDUCREATE
 40
2458532.153996898
  9
$TDUPDATE
 40
2460751.129236111
  9
$TDUUPDATE
 40
2458532.1544311
  9
$TDINDWG
 40
0.0
  9
$TDUSRTIMER
 40
0.0
  9
$USRTIMER
 70
1
  9
$ANGBASE
 50
0.0
  9
$ANGDIR
 70
0
  9
$PDMODE
 70
0
  9
$PDSIZE
 40
0.0
  9
$PLINEWID
 40
0.0
  9
$SPLFRAME
 70
0
  9
$SPLINETYPE
 70
6
  9
$SPLINESEGS
 70
8
  9
$HANDSEED
  5
50
  9
$SURFTAB1
 70
6
  9
$SURFTAB2
 70
6
  9
$SURFTYPE
 70
6
  9
$SURFU
 70
6
  9
$SURFV
 70
6
  9
$UCSBASE
  2

  9
$UCSNAME
  2

  9
$UCSORG
 10
0.0
 20
0.0
 30
0.0
  9
$UCSXDIR
 10
1.0
 20
0.0
 30
0.0
  9
$UCSYDIR
 10
0.0
 20
1.0
 30
0.0
  9
$UCSORTHOREF
  2

  9
$UCSORTHOVIEW
 70
0
  9
$UCSORGTOP
 10
0.0
 20
0.0
 30
0.0
  9
$UCSORGBOTTOM
 10
0.0
 20
0.0
 30
0.0
  9
$UCSORGLEFT
 10
0.0
 20
0.0
 30
0.0
  9
$UCSORGRIGHT
 10
0.0
 20
0.0
 30
0.0
  9
$UCSORGFRONT
 10
0.0
 20
0.0
 30
0.0
  9
$UCSORGBACK
 10
0.0
 20
0.0
 30
0.0
  9
$PUCSBASE
  2

  9
$PUCSNAME
  2

  9
$PUCSORG
 10
0.0
 20
0.0
 30
0.0
  9
$PUCSXDIR
 10
1.0
 20
0.0
 30
0.0
  9
$PUCSYDIR
 10
0.0
 20
1.0
 30
0.0
  9
$PUCSORTHOREF
  2

  9
$PUCSORTHOVIEW
 70
0
  9
$PUCSORGTOP
 10
0.0
 20
0.0
 30
0.0
  9
$PUCSORGBOTTOM
 10
0.0
 20
0.0
 30
0.0
  9
$PUCSORGLEFT
 10
0.0
 20
0.0
 30
0.0
  9
$PUCSORGRIGHT
 10
0.0
 20
0.0
 30
0.0
  9
$PUCSORGFRONT
 10
0.0
 20
0.0
 30
0.0
  9
$PUCSORGBACK
 10
0.0
 20
0.0
 30
0.0
  9
$USERI1
 70
0
  9
$USERI2
 70
0
  9
$USERI3
 70
0
  9
$USERI4
 70
0
  9
$USERI5
 70
0
  9
$USERR1
 40
0.0
  9
$USERR2
 40
0.0
  9
$USERR3
 40
0.0
  9
$USERR4
 40
0.0
  9
$USERR5
 40
0.0
  9
$WORLDVIEW
 70
1
  9
$SHADEDGE
 70
3
  9
$SHADEDIF
 70
70
  9
$TILEMODE
 70
1
  9
$MAXACTVP
 70
64
  9
$PINSBASE
 10
0.0
 20
0.0
 30
0.0
  9
$PLIMCHECK
 70
0
  9
$PEXTMIN
 10
1e+20
 20
1e+20
 30
1e+20
  9
$PEXTMAX
 10
-1e+20
 20
-1e+20
 30
-1e+20
  9
$PLIMMIN
 10
0.0
 20
0.0
  9
$PLIMMAX
 10
420.0
 20
297.0
  9
$UNITMODE
 70
0
  9
$VISRETAIN
 70
1
  9
$PLINEGEN
 70
0
  9
$PSLTSCALE
 70
1
  9
$TREEDEPTH
 70
3020
  9
$CMLSTYLE
  2
Standard
  9
$CMLJUST
 70
0
  9
$CMLSCALE
 40
20.0
  9
$PROXYGRAPHICS
 70
1
  9
$MEASUREMENT
 70
1
  9
$CELWEIGHT
370
-1
  9
$ENDCAPS
280
0
  9
$JOINSTYLE
280
0
  9
$LWDISPLAY
290
0
  9
$INSUNITS
 70
6
  9
$HYPERLINKBASE
  1

  9
$STYLESHEET
  1

  9
$XEDIT
290
1
  9
$CEPSNTYPE
380
0
  9
$PSTYLEMODE
290
1
  9
$FINGERPRINTGUID
  2
{C8C77598-5D9E-4448-B660-45E487E9AB18}
  9
$VERSIONGUID
  2
{5F3E52B5-368E-480E-B2E4-0598418B6FFA}
  9
$EXTNAMES
290
1
  9
$PSVPSCALE
 40
0.0
  9
$OLESTARTUP
290
0
  9
$SORTENTS
280
127
  9
$INDEXCTL
280
0
  9
$HIDETEXT
280
1
  9
$XCLIPFRAME
280
0
  9
$HALOGAP
280
0
  9
$OBSCOLOR
 70
257
  9
$OBSLTYPE
280
0
  9
$INTERSECTIONDISPLAY
280
0
  9
$INTERSECTIONCOLOR
 70
257
  9
$DIMASSOC
280
2
  9
$PROJECTNAME
  1

  9
$CAMERADISPLAY
290
0
  9
$LENSLENGTH
 40
50.0
  9
$CAMERAHEIGHT
 40
0.0
  9
$STEPSPERSEC
 40
24.0
  9
$STEPSIZE
 40
100.0
  9
$3DDWFPREC
 40
2.0
  9
$PSOLWIDTH
 40
0.005
  9
$PSOLHEIGHT
 40
0.08
  9
$LOFTANG1
 40
1.570796326795
  9
$LOFTANG2
 40
1.570796326795
  9
$LOFTMAG1
 40
0.0
  9
$LOFTMAG2
 40
0.0
  9
$LOFTPARAM
 70
7
  9
$LOFTNORMALS
280
1
  9
$LATITUDE
 40
37.795
  9
$LONGITUDE
 40
-122.394
  9
$NORTHDIRECTION
 40
0.0
  9
$TIMEZONE
 70
-8000
  9
$LIGHTGLYPHDISPLAY
280
1
  9
$TILEMODELIGHTSYNCH
280
1
  9
$CMATERIAL
347
20
  9
$SOLIDHIST
280
0
  9
$SHOWHIST
280
1
  9
$DWFFRAME
280
2
  9
$DGNFRAME
280
2
  9
$REALWORLDSCALE
290
1
  9
$INTERFERECOLOR
 62
256
  9
$CSHADOW
280
0
  9
$SHADOWPLANELOCATION
 40
0.0
  0
ENDSEC
  0
SECTION
  2
CLASSES
  0
CLASS
  1
ACDBDICTIONARYWDFLT
  2
AcDbDictionaryWithDefault
  3
ObjectDBX Classes
 90
0
 91
0
280
0
281
0
  0
CLASS
  1
SUN
  2
AcDbSun
  3
SCENEOE
 90
1153
 91
0
280
0
281
0
  0
CLASS
  1
VISUALSTYLE
  2
AcDbVisualStyle
  3
ObjectDBX Classes
 90
4095
 91
0
280
0
281
0
  0
CLASS
  1
MATERIAL
  2
AcDbMaterial
  3
ObjectDBX Classes
 90
1153
 91
0
280
0
281
0
  0
CLASS
  1
SCALE
  2
AcDbScale
  3
ObjectDBX Classes
 90
1153
 91
0
280
0
281
0
  0
CLASS
  1
TABLESTYLE
  2
AcDbTableStyle
  3
ObjectDBX Classes
 90
4095
 91
0
280
0
281
0
  0
CLASS
  1
MLEADERSTYLE
  2
AcDbMLeaderStyle
  3
ACDB_MLEADERSTYLE_CLASS
 90
4095
 91
0
280
0
281
0
  0
CLASS
  1
DICTIONARYVAR
  2
AcDbDictionaryVar
  3
ObjectDBX Classes
 90
0
 91
0
280
0
281
0
  0
CLASS
  1
CELLSTYLEMAP
  2
AcDbCellStyleMap
  3
ObjectDBX Classes
 90
1152
 91
0
280
0
281
0
  0
CLASS
  1
MENTALRAYRENDERSETTINGS
  2
AcDbMentalRayRenderSettings
  3
SCENEOE
 90
1024
 91
0
280
0
281
0
  0
CLASS
  1
ACDBDETAILVIEWSTYLE
  2
AcDbDetailViewStyle
  3
ObjectDBX Classes
 90
1025
 91
0
280
0
281
0
  0
CLASS
  1
ACDBSECTIONVIEWSTYLE
  2
AcDbSectionViewStyle
  3
ObjectDBX Classes
 90
1025
 91
0
280
0
281
0
  0
CLASS
  1
RASTERVARIABLES
  2
AcDbRasterVariables
  3
ISM
 90
0
 91
0
280
0
281
0
  0
CLASS
  1
LAYOUT
  2
AcDbLayout
  3
ObjectDBX Classes
 90
0
 91
0
280
0
281
0
  0
CLASS
  1
ACDBPLACEHOLDER
  2
AcDbPlaceHolder
  3
ObjectDBX Classes
 90
0
 91
0
280
0
281
0
  0
ENDSEC
  0
SECTION
  2
TABLES
  0
TABLE
  2
VPORT
  5
8
330
0
100
AcDbSymbolTable
 70
1
  0
VPORT
  5
23
330
8
100
AcDbSymbolTableRecord
100
AcDbViewportTableRecord
  2
*Active
 70
0
 10
0.0
 20
0.0
 11
1.0
 21
1.0
 12
0.0
 22
0.0
 13
0.0
 23
0.0
 14
0.5
 24
0.5
 15
0.5
 25
0.5
 16
0.0
 26
0.0
 36
1.0
 17
0.0
 27
0.0
 37
0.0
 40
1000.0
 41
1.34
 42
50.0
 43
0.0
 44
0.0
 50
0.0
 51
0.0
 71
0
 72
1000
 73
1
 74
3
 75
0
 76
0
 77
0
 78
0
281
0
 65
0
146
0.0
  0
ENDTAB
  0
TABLE
  2
LTYPE
  5
2
330
0
100
AcDbSymbolTable
 70
3
  0
LTYPE
  5
24
330
2
100
AcDbSymbolTableRecord
100
AcDbLinetypeTableRecord
  2
ByBlock
 70
0
  3

 72
65
 73
0
 40
0.0
  0
LTYPE
  5
25
330
2
100
AcDbSymbolTableRecord
100
AcDbLinetypeTableRecord
  2
ByLayer
 70
0
  3

 72
65
 73
0
 40
0.0
  0
LTYPE
  5
26
330
2
100
AcDbSymbolTableRecord
100
AcDbLinetypeTableRecord
  2
Continuous
 70
0
  3

 72
65
 73
0
 40
0.0
  0
ENDTAB
  0
TABLE
  2
LAYER
  5
1
330
0
100
AcDbSymbolTable
 70
2
  0
LAYER
  5
27
330
1
100
AcDbSymbolTableRecord
100
AcDbLayerTableRecord
  2
0
 70
0
 62
7
  6
Continuous
370
-3
390
13
347
21
  0
LAYER
  5
28
330
1
100
AcDbSymbolTableRecord
100
AcDbLayerTableRecord
  2
Defpoints
 70
0
 62
7
  6
Continuous
290
0
370
-3
390
13
347
21
  0
ENDTAB
  0
TABLE
  2
STYLE
  5
5
330
0
100
AcDbSymbolTable
 70
1
  0
STYLE
  5
29
330
5
100
AcDbSymbolTableRecord
100
AcDbTextStyleTableRecord
  2
Standard
 70
0
 40
0.0
 41
1.0
 50
0.0
 71
0
 42
2.5
  3
txt
  4

  0
ENDTAB
  0
TABLE
  2
VIEW
  5
7
330
0
100
AcDbSymbolTable
 70
0
  0
ENDTAB
  0
TABLE
  2
UCS
  5
6
330
0
100
AcDbSymbolTable
 70
0
  0
ENDTAB
  0
TABLE
  2
APPID
  5
3
330
0
100
AcDbSymbolTable
 70
3
  0
APPID
  5
2A
330
3
100
AcDbSymbolTableRecord
100
AcDbRegAppTableRecord
  2
ACAD
 70
0
  0
APPID
  5
4D
330
3
100
AcDbSymbolTableRecord
100
AcDbRegAppTableRecord
  2
HATCHBACKGROUNDCOLOR
 70
0
  0
APPID
  5
4E
330
3
100
AcDbSymbolTableRecord
100
AcDbRegAppTableRecord
  2
EZDXF
 70
0
  0
ENDTAB
  0
TABLE
  2
DIMSTYLE
  5
4
330
0
100
AcDbSymbolTable
 70
1
100
AcDbDimStyleTable
  0
DIMSTYLE
105
2B
330
4
100
AcDbSymbolTableRecord
100
AcDbDimStyleTableRecord
  2
Standard
 70
0
 40
1.0
 41
2.5
 42
0.625
 43
3.75
 44
1.25
 45
0.0
 46
0.0
 47
0.0
 48
0.0
 49
2.5
140
2.5
141
2.5
142
0.0
143
0.03937007874
144
1.0
145
0.0
146
1.0
147
0.625
148
0.0
 69
0
 70
0
 71
0
 72
0
 73
0
 74
0
 75
0
 76
0
 77
1
 78
8
 79
3
170
0
171
3
172
1
173
0
174
0
175
0
176
0
177
0
178
0
179
2
271
2
272
2
273
2
274
3
275
0
276
0
277
2
278
44
279
0
280
0
281
0
282
0
283
0
284
8
285
0
286
0
288
0
289
3
290
0
371
-2
372
-2
  0
ENDTAB
  0
TABLE
  2
BLOCK_RECORD
  5
9
330
0
100
AcDbSymbolTable
 70
2
  0
BLOCK_RECORD
  5
17
330
9
100
AcDbSymbolTableRecord
100
AcDbBlockTableRecord
  2
*Model_Space
340
1A
 70
0
280
1
281
0
  0
BLOCK_RECORD
  5
1B
330
9
100
AcDbSymbolTableRecord
100
AcDbBlockTableRecord
  2
*Paper_Space
340
1E
 70
0
280
1
281
0
  0
ENDTAB
  0
ENDSEC
  0
SECTION
  2
BLOCKS
  0
BLOCK
  5
18
330
17
100
AcDbEntity
  8
0
100
AcDbBlockBegin
  2
*Model_Space
 70
0
 10
0.0
 20
0.0
 30
0.0
  3
*Model_Space
  1

  0
ENDBLK
  5
19
330
17
100
AcDbEntity
  8
0
100
AcDbBlockEnd
  0
BLOCK
  5
1C
330
1B
100
AcDbEntity
  8
0
100
AcDbBlockBegin
  2
*Paper_Space
 70
0
 10
0.0
 20
0.0
 30
0.0
  3
*Paper_Space
  1

  0
ENDBLK
  5
1D
330
1B
100
AcDbEntity
  8
0
100
AcDbBlockEnd
  0
ENDSEC
  0
SECTION
  2
ENTITIES
  0
LWPOLYLINE
  5
2F
330
17
100
AcDbEntity
  8
0
100
AcDbPolyline
 90
16
 70
1
 10
0.004730000000002121
 20
45.02325439999995
 10
41.50472999999999
 20
45.02325439999995
 10
41.50472999999999
 20
30.023254399999953
 10
37.50472999999998
 20
30.023254399999953
 10
37.50472999999999
 20
15.023254399999953
 10
41.50472999999999
 20
15.023254399999953
 10
41.50472999999999
 20
0.0232543999999546
 10
26.504730000000006
 20
0.0232543999999546
 10
26.504730000000006
 20
4.023254399999955
 10
15.004729999999986
 20
4.023254399999955
 10
15.004729999999984
 20
0.0232543999999546
 10
0.0047299999999879105
 20
0.0232543999999546
 10
0.004730000000002121
 20
15.023254399999953
 10
4.004730000000002
 20
15.023254399999953
 10
4.004730000000002
 20
30.023254399999953
 10
0.004730000000002121
 20
30.023254399999953
  0
LWPOLYLINE
  5
30
330
17
100
AcDbEntity
  8
0
100
AcDbPolyline
 90
16
 70
1
 10
41.50101337397609
 20
45.08044837730965
 10
0.0010133739765905148
 20
45.080442003333225
 10
0.001011070129688818
 20
60.08044200333305
 10
4.001011070129646
 20
60.08044261769221
 10
4.001008766282741
 20
75.08044261769204
 10
0.0010087662827871213
 20
75.08044200333286
 10
0.0010064624358854246
 20
90.08044200333269
 10
15.001006462435692
 20
90.08044430717959
 10
15.001007076794865
 20
86.08044430717963
 10
26.50100707679475
 20
86.08044607346227
 10
26.501006462435576
 20
90.08044607346221
 10
41.5010064624354
 20
90.08044837730911
 10
41.50100876628229
 20
75.0804483773093
 10
37.50100876628233
 20
75.08044776295012
 10
37.50101107012924
 20
60.0804477629503
 10
41.50101107012919
 20
60.08044837730947
  0
LWPOLYLINE
  5
31
330
17
100
AcDbEntity
  8
0
100
AcDbPolyline
 90
16
 70
1
 10
41.50421737397609
 20
90.10303437730964
 10
0.0042173739765907214
 20
90.10302800333321
 10
0.004215070129689025
 20
105.10302800333304
 10
4.004215070129646
 20
105.1030286176922
 10
4.004212766282741
 20
120.10302861769203
 10
0.004212766282787328
 20
120.10302800333285
 10
0.004210462435885631
 20
135.10302800333267
 10
15.004210462435692
 20
135.10303030717958
 10
15.004211076794865
 20
131.10303030717964
 10
26.504211076794753
 20
131.10303207346226
 10
26.50421046243558
 20
135.1030320734622
 10
41.5042104624354
 20
135.10303437730911
 10
41.504212766282286
 20
120.10303437730929
 10
37.504212766282336
 20
120.1030337629501
 10
37.504215070129234
 20
105.10303376295029
 10
41.50421507012919
 20
105.10303437730946
  0
LWPOLYLINE
  5
32
330
17
100
AcDbEntity
  8
0
100
AcDbPolyline
 90
16
 70
1
 10
0.0030520000000038294
 20
180.11046999999994
 10
41.50305199999999
 20
180.11046999999994
 10
41.50305199999999
 20
165.11046999999994
 10
37.50305199999998
 20
165.11046999999994
 10
37.50305199999999
 20
150.11046999999994
 10
41.50305199999999
 20
150.11046999999994
 10
41.50305199999999
 20
135.11046999999994
 10
26.503052000000007
 20
135.11046999999994
 10
26.503052000000007
 20
139.11046999999994
 10
15.003051999999988
 20
139.11046999999994
 10
15.003051999999986
 20
135.11046999999994
 10
0.0030519999999896186
 20
135.11046999999994
 10
0.0030520000000038294
 20
150.11046999999994
 10
4.003052000000004
 20
150.11046999999994
 10
4.003052000000004
 20
165.11046999999994
 10
0.0030520000000038294
 20
165.11046999999994
  0
LWPOLYLINE
  5
33
330
17
100
AcDbEntity
  8
0
100
AcDbPolyline
 90
16
 70
1
 10
41.50113537397609
 20
180.14410437730965
 10
0.0011353739765915805
 20
180.14409800333323
 10
0.0011330701296898837
 20
195.14409800333306
 10
4.001133070129647
 20
195.14409861769224
 10
4.001130766282742
 20
210.14409861769204
 10
0.001130766282788187
 20
210.14409800333289
 10
0.0011284624358864903
 20
225.1440980033327
 10
15.001128462435693
 20
225.1441003071796
 10
15.001129076794866
 20
221.14410030717966
 10
26.501129076794754
 20
221.14410207346228
 10
26.50112846243558
 20
225.14410207346222
 10
41.5011284624354
 20
225.14410437730913
 10
41.50113076628229
 20
210.1441043773093
 10
37.50113076628234
 20
210.14410376295012
 10
37.501133070129235
 20
195.1441037629503
 10
41.50113307012919
 20
195.14410437730947
  0
LWPOLYLINE
  5
34
330
17
100
AcDbEntity
  8
0
100
AcDbPolyline
 90
16
 70
1
 10
0.0008240000000050429
 20
270.15056999999996
 10
41.500823999999994
 20
270.15056999999996
 10
41.500823999999994
 20
255.15056999999993
 10
37.50082399999999
 20
255.15056999999993
 10
37.500823999999994
 20
240.15056999999993
 10
41.500823999999994
 20
240.15056999999993
 10
41.500823999999994
 20
225.15056999999993
 10
26.50082400000001
 20
225.15056999999993
 10
26.50082400000001
 20
229.15056999999993
 10
15.000823999999989
 20
229.15056999999993
 10
15.000823999999987
 20
225.15056999999993
 10
0.0008239999999908321
 20
225.15056999999993
 10
0.0008240000000050429
 20
240.15056999999993
 10
4.000824000000005
 20
240.15056999999993
 10
4.000824000000005
 20
255.15056999999993
 10
0.0008240000000050429
 20
255.15056999999993
  0
LWPOLYLINE
  5
35
330
17
100
AcDbEntity
  8
0
100
AcDbPolyline
 90
16
 70
1
 10
41.5012863739739
 20
270.2053827914214
 10
0.0012863739744091163
 20
270.205376417445
 10
0.0012840701275251831
 20
285.20537641744477
 10
4.001284070127468
 20
285.20537703180395
 10
4.001281766280528
 20
300.2053770318038
 10
0.0012817662806128283
 20
300.2053764174446
 10
0.0012794624337004734
 20
315.2053764174444
 10
15.001279462433473
 20
315.20537872129137
 10
15.001280076792654
 20
311.20537872129137
 10
26.50128007679254
 20
311.205380487574
 10
26.501279462433388
 20
315.20538048757396
 10
41.50127946243319
 20
315.20538279142085
 10
41.5012817662801
 20
300.205382791421
 10
37.50128176628016
 20
300.2053821770619
 10
37.50128407012707
 20
285.20538217706206
 10
41.501284070127014
 20
285.20538279142124
  0
LWPOLYLINE
  5
36
330
17
100
AcDbEntity
  8
0
100
AcDbPolyline
 90
16
 70
1
 10
41.50311637397388
 20
315.2172527914214
 10
0.0031163739743931274
 20
315.217246417445
 10
0.003114070127509194
 20
330.21724641744476
 10
4.003114070127452
 20
330.21724703180394
 10
4.003111766280512
 20
345.21724703180377
 10
0.0031117662805968394
 20
345.2172464174446
 10
0.0031094624336844845
 20
360.2172464174444
 10
15.003109462433457
 20
360.21724872129136
 10
15.003110076792638
 20
356.21724872129136
 10
26.503110076792524
 20
356.217250487574
 10
26.503109462433372
 20
360.21725048757395
 10
41.50310946243317
 20
360.21725279142083
 10
41.503111766280085
 20
345.217252791421
 10
37.50311176628014
 20
345.2172521770619
 10
37.503114070127054
 20
330.21725217706205
 10
41.503114070127
 20
330.21725279142123
  0
LWPOLYLINE
  5
37
330
17
100
AcDbEntity
  8
0
100
AcDbPolyline
 90
16
 70
1
 10
0.0013400000000274304
 20
405.23047
 10
41.50134
 20
405.23047
 10
41.50134
 20
390.23047
 10
37.50134
 20
390.23047
 10
37.50134000000003
 20
375.23047
 10
41.50134
 20
375.23047
 10
41.50134
 20
360.23047
 10
26.501340000000056
 20
360.23047
 10
26.501340000000056
 20
364.23047
 10
15.001340000000027
 20
364.23047
 10
15.001339999999999
 20
360.23047
 10
0.0013400000000274304
 20
360.23047
 10
0.0013400000000274304
 20
375.23047
 10
4.001339999999999
 20
375.23047
 10
4.001339999999999
 20
390.23047
 10
0.0013400000000274304
 20
390.23047
  0
LWPOLYLINE
  5
38
330
17
100
AcDbEntity
  8
0
100
AcDbPolyline
 90
16
 70
1
 10
0.00024000000001933586
 20
450.2432
 10
41.50023999999999
 20
450.2432
 10
41.50023999999999
 20
435.2432
 10
37.50023999999999
 20
435.2432
 10
37.50024000000002
 20
420.2432
 10
41.50023999999999
 20
420.2432
 10
41.50023999999999
 20
405.2432
 10
26.500240000000048
 20
405.2432
 10
26.500240000000048
 20
409.2432
 10
15.00024000000002
 20
409.2432
 10
15.000239999999991
 20
405.2432
 10
0.00024000000001933586
 20
405.2432
 10
0.00024000000001933586
 20
420.2432
 10
4.000239999999991
 20
420.2432
 10
4.000239999999991
 20
435.2432
 10
0.00024000000001933586
 20
435.2432
  0
LWPOLYLINE
  5
39
330
17
100
AcDbEntity
  8
0
100
AcDbPolyline
 90
16
 70
1
 10
83.00739637397388
 20
0.0029327914213865824
 10
41.50739637397439
 20
0.002926417444960805
 10
41.5073940701275
 20
15.00292641744478
 10
45.50739407012745
 20
15.002927031803953
 10
45.507391766280506
 20
30.002927031803775
 10
41.50739176628059
 20
30.002926417444602
 10
41.50738946243368
 20
45.00292641744443
 10
56.50738946243345
 20
45.002928721291326
 10
56.50739007679263
 20
41.002928721291376
 10
68.00739007679252
 20
41.002930487574
 10
68.00738946243337
 20
45.00293048757395
 10
83.00738946243317
 20
45.002932791420854
 10
83.00739176628008
 20
30.00293279142103
 10
79.00739176628014
 20
30.002932177061858
 10
79.00739407012705
 20
15.002932177062032
 10
83.00739407012699
 20
15.002932791421209
  0
LWPOLYLINE
  5
3A
330
17
100
AcDbEntity
  8
0
100
AcDbPolyline
 90
16
 70
1
 10
41.50104637397388
 20
450.2574327914214
 10
0.0010463739743897804
 20
450.257426417445
 10
0.0010440701275058473
 20
465.2574264174448
 10
4.001044070127449
 20
465.25742703180396
 10
4.001041766280508
 20
480.2574270318038
 10
0.0010417662805934924
 20
480.2574264174446
 10
0.0010394624336811376
 20
495.25742641744444
 10
15.001039462433454
 20
495.2574287212914
 10
15.001040076792634
 20
491.2574287212914
 10
26.50104007679252
 20
491.257430487574
 10
26.50103946243337
 20
495.25743048757397
 10
41.50103946243317
 20
495.25743279142085
 10
41.50104176628008
 20
480.257432791421
 10
37.50104176628014
 20
480.2574321770619
 10
37.50104407012705
 20
465.25743217706207
 10
41.501044070126994
 20
465.25743279142125
  0
LWPOLYLINE
  5
3B
330
17
100
AcDbEntity
  8
0
100
AcDbPolyline
 90
16
 70
1
 10
79.00174560019046
 20
45.01910370717978
 10
45.50174560019054
 20
45.01910125480882
 10
45.501744502113986
 20
60.01910125480879
 10
41.50174450211399
 20
60.01910096198837
 10
41.50174340403745
 20
75.01910096198833
 10
45.501743404037434
 20
75.01910125480875
 10
45.50174230596089
 20
90.0191012548087
 10
56.50174230596086
 20
90.01910206006485
 10
56.50174259878128
 20
86.01910206006485
 10
68.00174259878125
 20
86.01910290192353
 10
68.00174230596083
 20
90.01910290192353
 10
79.0017423059608
 20
90.01910370717967
 10
79.00174340403736
 20
75.01910370717971
 10
83.00174340403734
 20
75.01910400000011
 10
83.0017445021139
 20
60.01910400000017
 10
79.00174450211391
 20
60.01910370717975
  0
LWPOLYLINE
  5
3C
330
17
100
AcDbEntity
  8
0
100
AcDbPolyline
 90
16
 70
1
 10
37.50189760019045
 20
495.2720997071798
 10
4.001897600190539
 20
495.27209725480884
 10
4.001896502113986
 20
510.27209725480884
 10
0.0018965021139933924
 20
510.2720969619884
 10
0.0018954040374481451
 20
525.2720969619884
 10
4.001895404037434
 20
525.2720972548087
 10
4.001894305960889
 20
540.2720972548087
 10
15.00189430596086
 20
540.2720980600649
 10
15.001894598781274
 20
536.2720980600649
 10
26.501894598781245
 20
536.2720989019235
 10
26.501894305960835
 20
540.2720989019235
 10
37.5018943059608
 20
540.2720997071797
 10
37.501895404037356
 20
525.2720997071797
 10
41.50189540403734
 20
525.2721000000001
 10
41.501896502113894
 20
510.2721000000002
 10
37.50189650211391
 20
510.2720997071798
  0
LWPOLYLINE
  5
3D
330
17
100
AcDbEntity
  8
0
100
AcDbPolyline
 90
16
 70
1
 10
79.00696560019047
 20
90.02093970717978
 10
45.50696560019055
 20
90.02093725480881
 10
45.506964502113995
 20
105.02093725480879
 10
41.506964502114
 20
105.02093696198837
 10
41.50696340403746
 20
120.02093696198833
 10
45.50696340403744
 20
120.02093725480874
 10
45.5069623059609
 20
135.0209372548087
 10
56.50696230596087
 20
135.02093806006485
 10
56.506962598781286
 20
131.02093806006485
 10
68.00696259878126
 20
131.02093890192353
 10
68.00696230596084
 20
135.02093890192353
 10
79.00696230596081
 20
135.02093970717968
 10
79.00696340403736
 20
120.0209397071797
 10
83.00696340403735
 20
120.02094000000011
 10
83.0069645021139
 20
105.02094000000017
 10
79.00696450211392
 20
105.02093970717975
  0
LWPOLYLINE
  5
3E
330
17
100
AcDbEntity
  8
0
100
AcDbPolyline
 90
16
 70
1
 10
4.000310775970374
 20
585.2855497071794
 10
37.500310775970284
 20
585.2855472548084
 10
37.50030967789373
 20
570.2855472548084
 10
41.500309677893725
 20
570.2855469619881
 10
41.500308579817165
 20
555.2855469619881
 10
37.50030857981718
 20
555.2855472548085
 10
37.500307481740634
 20
540.2855472548085
 10
26.500307481740656
 20
540.2855480600647
 10
26.50030777456107
 20
544.2855480600647
 10
15.000307774561097
 20
544.2855489019233
 10
15.00030748174068
 20
540.2855489019233
 10
4.0003074817407125
 20
540.2855497071795
 10
4.000308579817266
 20
555.2855497071795
 10
0.0003085798172770942
 20
555.2855499999998
 10
0.0003096778938311375
 20
570.2855499999998
 10
4.000309677893821
 20
570.2855497071794
  0
LWPOLYLINE
  5
3F
330
17
100
AcDbEntity
  8
0
100
AcDbPolyline
 90
16
 70
1
 10
45.50894560019037
 20
180.02196970717938
 10
79.00894560019029
 20
180.02196725480843
 10
79.00894450211374
 20
165.02196725480843
 10
83.00894450211374
 20
165.02196696198803
 10
83.00894340403717
 20
150.02196696198808
 10
79.00894340403718
 20
150.0219672548085
 10
79.00894230596063
 20
135.02196725480852
 10
68.00894230596066
 20
135.02196806006467
 10
68.00894259878108
 20
139.02196806006464
 10
56.508942598781104
 20
139.02196890192334
 10
56.50894230596069
 20
135.02196890192334
 10
45.508942305960716
 20
135.0219697071795
 10
45.50894340403727
 20
150.02196970717947
 10
41.50894340403728
 20
150.02196999999987
 10
41.508944502113835
 20
165.02196999999984
 10
45.50894450211382
 20
165.0219697071794
  0
LWPOLYLINE
  5
40
330
17
100
AcDbEntity
  8
0
100
AcDbPolyline
 90
16
 70
1
 10
4.000158188080373
 20
630.3293997071794
 10
37.500158188080285
 20
630.3293972548083
 10
37.50015709000373
 20
615.3293972548084
 10
41.500157090003725
 20
615.329396961988
 10
41.500155991927166
 20
600.3293969619881
 10
37.50015599192718
 20
600.3293972548084
 10
37.500154893850635
 20
585.3293972548084
 10
26.500154893850656
 20
585.3293980600646
 10
26.50015518667107
 20
589.3293980600646
 10
15.000155186671098
 20
589.3293989019234
 10
15.00015489385068
 20
585.3293989019234
 10
4.000154893850712
 20
585.3293997071795
 10
4.000155991927265
 20
600.3293997071794
 10
0.00015599192727709424
 20
600.3293999999999
 10
0.0001570900038311375
 20
615.3293999999999
 10
4.00015709000382
 20
615.3293997071794
  0
LWPOLYLINE
  5
41
330
17
100
AcDbEntity
  8
0
100
AcDbPolyline
 90
16
 70
1
 10
45.50153511403536
 20
225.03149370717927
 10
79.00153511403528
 20
225.0314912548083
 10
79.00153401595873
 20
210.03149125480832
 10
83.00153401595873
 20
210.0314909619879
 10
83.00153291788216
 20
195.03149096198794
 10
79.00153291788217
 20
195.03149125480837
 10
79.00153181980562
 20
180.0314912548084
 10
68.00153181980565
 20
180.03149206006452
 10
68.00153211262605
 20
184.03149206006452
 10
56.501532112626094
 20
184.03149290192323
 10
56.50153181980568
 20
180.03149290192323
 10
45.501531819805706
 20
180.03149370717938
 10
45.50153291788226
 20
195.03149370717932
 10
41.50153291788227
 20
195.03149399999973
 10
41.501534015958825
 20
210.0314939999997
 10
45.50153401595881
 20
210.03149370717927
  0
LWPOLYLINE
  5
42
330
17
100
AcDbEntity
  8
0
100
AcDbPolyline
 90
16
 70
1
 10
4.000436360135368
 20
675.3809997071792
 10
37.50043636013529
 20
675.3809972548082
 10
37.50043526205874
 20
660.3809972548083
 10
41.50043526205872
 20
660.3809969619879
 10
41.50043416398216
 20
645.3809969619879
 10
37.50043416398218
 20
645.3809972548083
 10
37.500433065905625
 20
630.3809972548083
 10
26.500433065905646
 20
630.3809980600645
 10
26.50043335872606
 20
634.3809980600645
 10
15.000433358726092
 20
634.3809989019232
 10
15.000433065905675
 20
630.3809989019232
 10
4.000433065905706
 20
630.3809997071794
 10
4.00043416398226
 20
645.3809997071793
 10
0.000434163982271571
 20
645.3809999999997
 10
0.00043526205882561426
 20
660.3809999999996
 10
4.000435262058814
 20
660.3809997071793
  0
LWPOLYLINE
  5
43
330
17
100
AcDbEntity
  8
0
100
AcDbPolyline
 90
16
 70
1
 10
45.50336611403537
 20
270.04577970717924
 10
79.00336611403529
 20
270.0457772548083
 10
79.00336501595874
 20
255.04577725480834
 10
83.00336501595872
 20
255.0457769619879
 10
83.00336391788215
 20
240.04577696198794
 10
79.00336391788218
 20
240.04577725480837
 10
79.00336281980563
 20
225.0457772548084
 10
68.00336281980564
 20
225.04577806006455
 10
68.00336311262606
 20
229.04577806006455
 10
56.50336311262609
 20
229.04577890192323
 10
56.50336281980567
 20
225.04577890192326
 10
45.50336281980571
 20
225.04577970717938
 10
45.50336391788226
 20
240.04577970717935
 10
41.503363917882275
 20
240.04577999999975
 10
41.50336501595883
 20
255.0457799999997
 10
45.50336501595881
 20
255.0457797071793
  0
LWPOLYLINE
  5
44
330
17
100
AcDbEntity
  8
0
100
AcDbPolyline
 90
16
 70
1
 10
37.5003451140354
 20
675.3904397071799
 10
4.000345114035483
 20
675.390437254809
 10
4.00034401595893
 20
690.390437254809
 10
0.0003440159589445102
 20
690.3904369619885
 10
0.0003429178823992629
 20
705.3904369619885
 10
4.000342917882385
 20
705.3904372548088
 10
4.000341819805833
 20
720.3904372548088
 10
15.0003418198058
 20
720.390438060065
 10
15.000342112626214
 20
716.390438060065
 10
26.500342112626186
 20
716.3904389019237
 10
26.500341819805772
 20
720.3904389019236
 10
37.50034181980574
 20
720.3904397071798
 10
37.50034291788229
 20
705.3904397071799
 10
41.500342917882286
 20
705.3904400000002
 10
41.50034401595883
 20
690.3904400000004
 10
37.500344015958845
 20
690.3904397071799
  0
LWPOLYLINE
  5
45
330
17
100
AcDbEntity
  8
0
100
AcDbPolyline
 90
16
 70
1
 10
79.0026031140354
 20
270.0459597071799
 10
45.50260311403549
 20
270.0459572548089
 10
45.502602015958935
 20
285.0459572548089
 10
41.50260201595895
 20
285.0459569619885
 10
41.502600917882404
 20
300.04595696198845
 10
45.50260091788239
 20
300.04595725480885
 10
45.50259981980584
 20
315.0459572548088
 10
56.50259981980581
 20
315.04595806006495
 10
56.50260011262622
 20
311.04595806006495
 10
68.0026001126262
 20
311.04595890192365
 10
68.00259981980578
 20
315.04595890192365
 10
79.00259981980575
 20
315.0459597071798
 10
79.0026009178823
 20
300.0459597071798
 10
83.00260091788229
 20
300.04596000000026
 10
83.00260201595884
 20
285.04596000000026
 10
79.00260201595884
 20
285.04595970717986
  0
LWPOLYLINE
  5
46
330
17
100
AcDbEntity
  8
0
100
AcDbPolyline
 90
16
 70
1
 10
4.0003448073953685
 20
765.3905597071794
 10
37.50034480739529
 20
765.3905572548083
 10
37.500343709318734
 20
750.3905572548084
 10
41.50034370931872
 20
750.390556961988
 10
41.50034261124216
 20
735.390556961988
 10
37.500342611242175
 20
735.3905572548084
 10
37.50034151316562
 20
720.3905572548084
 10
26.500341513165647
 20
720.3905580600646
 10
26.50034180598606
 20
724.3905580600646
 10
15.000341805986093
 20
724.3905589019232
 10
15.000341513165676
 20
720.3905589019233
 10
4.000341513165706
 20
720.3905597071794
 10
4.00034261124226
 20
735.3905597071794
 10
0.000342611242271571
 20
735.3905599999998
 10
0.0003437093188256143
 20
750.3905599999997
 10
4.000343709318814
 20
750.3905597071794
  0
LWPOLYLINE
  5
47
330
17
100
AcDbEntity
  8
0
100
AcDbPolyline
 90
20
 70
1
 10
52.504580000000004
 20
356.73566
 10
52.504580000000004
 20
352.73566
 10
41.504580000000004
 20
352.73566
 10
41.504580000000004
 20
341.73566
 10
37.504580000000004
 20
341.73566
 10
37.504580000000004
 20
330.23566
 10
41.504580000000004
 20
330.23566
 10
41.504580000000004
 20
319.23566
 10
52.504580000000004
 20
319.23566
 10
52.504580000000004
 20
315.23566
 10
64.00457999999998
 20
315.23566
 10
64.00457999999998
 20
319.23566
 10
75.00458
 20
319.23566
 10
75.00458
 20
330.23566
 10
79.00458
 20
330.23566
 10
79.00458
 20
341.73566
 10
75.00458
 20
341.73566
 10
75.00458
 20
352.73566
 10
64.00457999999998
 20
352.73566
 10
64.00457999999998
 20
356.73566
  0
LWPOLYLINE
  5
48
330
17
100
AcDbEntity
  8
0
100
AcDbPolyline
 90
20
 70
1
 10
37.502117273586045
 20
375.2330969619886
 10
41.50211727358602
 20
375.2330972548091
 10
41.502118078842166
 20
364.2330972548091
 10
52.50211807884214
 20
364.23309806006523
 10
52.50211837166255
 20
360.23309806006523
 10
64.00211837166252
 20
360.23309890192394
 10
64.0021180788421
 20
364.2330989019239
 10
75.00211807884209
 20
364.23309970718003
 10
75.00211727358594
 20
375.23309970718003
 10
79.00211727358594
 20
375.23310000000043
 10
79.00211643172725
 20
386.7331000000004
 10
75.00211643172726
 20
386.73309970718
 10
75.00211562647111
 20
397.73309970718
 10
64.00211562647114
 20
397.7330989019238
 10
64.00211533365074
 20
401.7330989019238
 10
52.50211533365076
 20
401.7330980600651
 10
52.50211562647117
 20
397.7330980600651
 10
41.502115626471195
 20
397.73309725480897
 10
41.50211643172734
 20
386.73309725480897
 10
37.50211643172736
 20
386.7330969619886
  0
LWPOLYLINE
  5
49
330
17
100
AcDbEntity
  8
0
100
AcDbPolyline
 90
20
 70
1
 10
26.502566373974602
 20
765.3907736528287
 10
26.50256575961545
 20
769.3907736528287
 10
37.50256575961534
 20
769.3907753423164
 10
37.502564070127605
 20
780.3907753423163
 10
41.50256407012755
 20
780.3907759566754
 10
41.502562303844925
 20
791.8907759566753
 10
37.50256230384498
 20
791.8907753423161
 10
37.50256061435725
 20
802.890775342316
 10
26.502560614357364
 20
802.8907736528282
 10
26.502559999998184
 20
806.8907736528282
 10
15.002559999998354
 20
806.8907718865456
 10
15.002560614357535
 20
802.8907718865456
 10
4.002560614357648
 20
802.8907701970579
 10
4.00256230384538
 20
791.890770197058
 10
0.0025623038453943536
 20
791.8907695826989
 10
0.0025640701280167377
 20
780.390769582699
 10
4.0025640701280025
 20
780.3907701970581
 10
4.0025657596157345
 20
769.3907701970583
 10
15.00256575961562
 20
769.3907718865461
 10
15.002566373974773
 20
765.3907718865461
  0
LWPOLYLINE
  5
4A
330
17
100
AcDbEntity
  8
0
100
AcDbPolyline
 90
20
 70
1
 10
52.500429999999994
 20
446.74725
 10
52.500429999999994
 20
442.74725
 10
41.500429999999994
 20
442.74725
 10
41.500429999999994
 20
431.74725
 10
37.500429999999994
 20
431.74725
 10
37.500429999999994
 20
420.24725
 10
41.500429999999994
 20
420.24725
 10
41.500429999999994
 20
409.24725
 10
52.500429999999994
 20
409.24725
 10
52.500429999999994
 20
405.24725
 10
64.00042999999997
 20
405.24725
 10
64.00042999999997
 20
409.24725
 10
75.00043
 20
409.24725
 10
75.00043
 20
420.24725
 10
79.00043
 20
420.24725
 10
79.00043
 20
431.74725
 10
75.00043
 20
431.74725
 10
75.00043
 20
442.74725
 10
64.00042999999997
 20
442.74725
 10
64.00042999999997
 20
446.74725
  0
LWPOLYLINE
  5
4B
330
17
100
AcDbEntity
  8
0
100
AcDbPolyline
 90
20
 70
1
 10
120.51005127358582
 20
26.507626961987825
 10
116.51005127358584
 20
26.507627254808227
 10
116.510052078842
 20
37.5076272548082
 10
105.51005207884201
 20
37.50762806006435
 10
105.51005237166243
 20
41.50762806006432
 10
94.01005237166245
 20
41.507628901923
 10
94.01005207884204
 20
37.50762890192303
 10
83.01005207884207
 20
37.50762970717918
 10
83.01005127358593
 20
26.507629707179206
 10
79.01005127358594
 20
26.507629999999608
 10
79.01005043172725
 20
15.007629999999665
 10
83.01005043172724
 20
15.007629707179262
 10
83.0100496264711
 20
4.007629707179262
 10
94.01004962647107
 20
4.007628901923113
 10
94.01004933365066
 20
0.007628901923112608
 10
105.51004933365063
 20
0.007628060064419628
 10
105.51004962647104
 20
4.007628060064434
 10
116.51004962647102
 20
4.007627254808284
 10
116.51005043172717
 20
15.007627254808284
 10
120.51005043172714
 20
15.007626961987881
  0
LWPOLYLINE
  5
4C
330
17
100
AcDbEntity
  8
0
100
AcDbPolyline
 90
20
 70
1
 10
26.500616373974594
 20
806.8931236528286
 10
26.500615759615442
 20
810.8931236528286
 10
37.50061575961533
 20
810.8931253423164
 10
37.5006140701276
 20
821.8931253423162
 10
41.50061407012754
 20
821.8931259566754
 10
41.50061230384492
 20
833.3931259566752
 10
37.500612303844974
 20
833.3931253423161
 10
37.50061061435724
 20
844.393125342316
 10
26.500610614357356
 20
844.3931236528282
 10
26.500609999998176
 20
848.3931236528282
 10
15.000609999998346
 20
848.3931218865456
 10
15.000610614357527
 20
844.3931218865456
 10
4.00061061435764
 20
844.3931201970579
 10
4.000612303845372
 20
833.393120197058
 10
0.0006123038453864638
 20
833.3931195826989
 10
0.0006140701280088479
 20
821.893119582699
 10
4.000614070127995
 20
821.8931201970581
 10
4.000615759615727
 20
810.8931201970582
 10
15.000615759615613
 20
810.893121886546
 10
15.000616373974765
 20
806.893121886546
  0
ENDSEC
  0
SECTION
  2
OBJECTS
  0
DICTIONARY
  5
A
330
0
100
AcDbDictionary
280
0
281
1
  3
ACAD_COLOR
350
B
  3
ACAD_GROUP
350
C
  3
ACAD_LAYOUT
350
D
  3
ACAD_MATERIAL
350
E
  3
ACAD_MLEADERSTYLE
350
F
  3
ACAD_MLINESTYLE
350
10
  3
ACAD_PLOTSETTINGS
350
11
  3
ACAD_PLOTSTYLENAME
350
12
  3
ACAD_SCALELIST
350
14
  3
ACAD_TABLESTYLE
350
15
  3
ACAD_VISUALSTYLE
350
16
  3
EZDXF_META
350
2D
  0
DICTIONARY
  5
B
330
A
100
AcDbDictionary
280
0
281
1
  0
DICTIONARY
  5
C
330
A
100
AcDbDictionary
280
0
281
1
  0
DICTIONARY
  5
D
330
A
100
AcDbDictionary
280
0
281
1
  3
Model
350
1A
  3
Layout1
350
1E
  0
DICTIONARY
  5
E
330
A
100
AcDbDictionary
280
0
281
1
  3
ByBlock
350
1F
  3
ByLayer
350
20
  3
Global
350
21
  0
DICTIONARY
  5
F
330
A
100
AcDbDictionary
280
0
281
1
  3
Standard
350
2C
  0
DICTIONARY
  5
10
330
A
100
AcDbDictionary
280
0
281
1
  3
Standard
350
22
  0
DICTIONARY
  5
11
330
A
100
AcDbDictionary
280
0
281
1
  0
ACDBDICTIONARYWDFLT
  5
12
330
A
100
AcDbDictionary
280
0
281
1
  3
Normal
350
13
100
AcDbDictionaryWithDefault
340
13
  0
ACDBPLACEHOLDER
  5
13
330
12
  0
DICTIONARY
  5
14
330
A
100
AcDbDictionary
280
0
281
1
  0
DICTIONARY
  5
15
330
A
100
AcDbDictionary
280
0
281
1
  0
DICTIONARY
  5
16
330
A
100
AcDbDictionary
280
0
281
1
  0
LAYOUT
  5
1A
330
D
100
AcDbPlotSettings
  1

  2
Adobe PDF
  4
A3
  6

 40
7.5
 41
20.0
 42
7.5
 43
20.0
 44
420.0
 45
297.0
 46
0.0
 47
0.0
 48
0.0
 49
0.0
140
0.0
141
0.0
142
1.0
143
1.0
 70
1024
 72
1
 73
0
 74
5
  7

 75
16
 76
0
 77
2
 78
300
147
1.0
148
0.0
149
0.0
100
AcDbLayout
  1
Model
 70
1
 71
0
 10
0.0
 20
0.0
 11
420.0
 21
297.0
 12
0.0
 22
0.0
 32
0.0
 14
1e+20
 24
1e+20
 34
1e+20
 15
-1e+20
 25
-1e+20
 35
-1e+20
146
0.0
 13
0.0
 23
0.0
 33
0.0
 16
1.0
 26
0.0
 36
0.0
 17
0.0
 27
1.0
 37
0.0
 76
1
330
17
  0
LAYOUT
  5
1E
330
D
100
AcDbPlotSettings
  1

  2
Adobe PDF
  4
A3
  6

 40
7.5
 41
20.0
 42
7.5
 43
20.0
 44
420.0
 45
297.0
 46
0.0
 47
0.0
 48
0.0
 49
0.0
140
0.0
141
0.0
142
1.0
143
1.0
 70
0
 72
1
 73
0
 74
5
  7

 75
16
 76
0
 77
2
 78
300
147
1.0
148
0.0
149
0.0
100
AcDbLayout
  1
Layout1
 70
1
 71
1
 10
0.0
 20
0.0
 11
420.0
 21
297.0
 12
0.0
 22
0.0
 32
0.0
 14
1e+20
 24
1e+20
 34
1e+20
 15
-1e+20
 25
-1e+20
 35
-1e+20
146
0.0
 13
0.0
 23
0.0
 33
0.0
 16
1.0
 26
0.0
 36
0.0
 17
0.0
 27
1.0
 37
0.0
 76
1
330
1B
  0
MATERIAL
  5
1F
102
{ACAD_REACTORS
330
E
102
}
330
E
100
AcDbMaterial
  1
ByBlock
  2

 70
0
 40
1.0
 71
1
 41
1.0
 91
-1023410177
 42
1.0
 72
1
  3

 73
1
 74
1
 75
1
 44
0.5
 73
0
 45
1.0
 46
1.0
 77
1
  4

 78
1
 79
1
170
1
 48
1.0
171
1
  6

172
1
173
1
174
1
140
1.0
141
1.0
175
1
  7

176
1
177
1
178
1
143
1.0
179
1
  8

270
1
271
1
272
1
145
1.0
146
1.0
273
1
  9

274
1
275
1
276
1
 42
1.0
 72
1
  3

 73
1
 74
1
 75
1
 94
63
  0
MATERIAL
  5
20
102
{ACAD_REACTORS
330
E
102
}
330
E
100
AcDbMaterial
  1
ByLayer
  2

 70
0
 40
1.0
 71
1
 41
1.0
 91
-1023410177
 42
1.0
 72
1
  3

 73
1
 74
1
 75
1
 44
0.5
 73
0
 45
1.0
 46
1.0
 77
1
  4

 78
1
 79
1
170
1
 48
1.0
171
1
  6

172
1
173
1
174
1
140
1.0
141
1.0
175
1
  7

176
1
177
1
178
1
143
1.0
179
1
  8

270
1
271
1
272
1
145
1.0
146
1.0
273
1
  9

274
1
275
1
276
1
 42
1.0
 72
1
  3

 73
1
 74
1
 75
1
 94
63
  0
MATERIAL
  5
21
102
{ACAD_REACTORS
330
E
102
}
330
E
100
AcDbMaterial
  1
Global
  2

 70
0
 40
1.0
 71
1
 41
1.0
 91
-1023410177
 42
1.0
 72
1
  3

 73
1
 74
1
 75
1
 44
0.5
 73
0
 45
1.0
 46
1.0
 77
1
  4

 78
1
 79
1
170
1
 48
1.0
171
1
  6

172
1
173
1
174
1
140
1.0
141
1.0
175
1
  7

176
1
177
1
178
1
143
1.0
179
1
  8

270
1
271
1
272
1
145
1.0
146
1.0
273
1
  9

274
1
275
1
276
1
 42
1.0
 72
1
  3

 73
1
 74
1
 75
1
 94
63
  0
MLINESTYLE
  5
22
102
{ACAD_REACTORS
330
10
102
}
330
10
100
AcDbMlineStyle
  2
Standard
 70
0
  3

 62
256
 51
90.0
 52
90.0
 71
2
 49
0.5
 62
256
  6
BYLAYER
 49
-0.5
 62
256
  6
BYLAYER
  0
MLEADERSTYLE
  5
2C
102
{ACAD_REACTORS
330
F
102
}
330
F
100
AcDbMLeaderStyle
179
2
170
2
171
1
172
0
 90
2
 40
0.0
 41
0.0
173
1
 91
-1056964608
 92
-2
290
1
 42
2.0
291
1
 43
8.0
  3
Standard
 44
4.0
300

342
29
174
1
175
1
176
0
178
1
 93
-1056964608
 45
4.0
292
0
297
0
 46
4.0
 94
-1056964608
 47
1.0
 49
1.0
140
1.0
294
1
141
0.0
177
0
142
1.0
295
0
296
0
143
3.75
271
0
272
9
273
9
  0
DICTIONARY
  5
2D
330
A
100
AcDbDictionary
281
1
  3
CREATED_BY_EZDXF
350
2E
  3
WRITTEN_BY_EZDXF
350
4F
  0
DICTIONARYVAR
  5
2E
330
2D
100
DictionaryVariables
280
0
  1
1.1.4 @ 2025-03-16T01:06:06.866097+00:00
  0
DICTIONARYVAR
  5
4F
330
2D
100
DictionaryVariables
280
0
  1
1.1.4 @ 2025-03-16T01:06:06.875233+00:00
  0
ENDSEC
  0
EOF
